{"name":"pop3","tempo":120,"songID":10,"userID":542731,"isOnRelease":false,"createdDate":1615736599142,"lastUpdatedDate":1615738361757,"tracks":[{"instrument":"Piano","volume":100,"notes":[{"noteNumber":72,"beat":0.5,"duration":0.5,"velocity":90},{"noteNumber":76,"beat":1,"duration":0.5,"velocity":90},{"noteNumber":72,"beat":1.5,"duration":0.5,"velocity":90},{"noteNumber":76,"beat":2,"duration":1,"velocity":90},{"noteNumber":72,"beat":3,"duration":1,"velocity":90},{"noteNumber":76,"beat":4,"duration":0.5,"velocity":90},{"noteNumber":76,"beat":5,"duration":0.5,"velocity":90},{"noteNumber":72,"beat":5.5,"duration":0.5,"velocity":90},{"noteNumber":79,"beat":6,"duration":2,"velocity":90},{"noteNumber":72,"beat":8.5,"duration":0.5,"velocity":90},{"noteNumber":77,"beat":9,"duration":0.5,"velocity":90},{"noteNumber":72,"beat":9.5,"duration":0.5,"velocity":90},{"noteNumber":81,"beat":10,"duration":1,"velocity":90},{"noteNumber":79,"beat":11,"duration":0.5,"velocity":90},{"noteNumber":77,"beat":11.5,"duration":0.5,"velocity":90},{"noteNumber":76,"beat":12,"duration":1,"velocity":90},{"noteNumber":74,"beat":13,"duration":0.5,"velocity":90},{"noteNumber":72,"beat":13.5,"duration":0.5,"velocity":90},{"noteNumber":74,"beat":14,"duration":2,"velocity":90},{"noteNumber":72,"beat":16.5,"duration":0.5,"velocity":90},{"noteNumber":76,"beat":17,"duration":0.5,"velocity":90},{"noteNumber":72,"beat":17.5,"duration":0.5,"velocity":90},{"noteNumber":76,"beat":18,"duration":1,"velocity":90},{"noteNumber":72,"beat":19,"duration":1,"velocity":90},{"noteNumber":76,"beat":20,"duration":0.5,"velocity":90},{"noteNumber":76,"beat":21,"duration":0.5,"velocity":90},{"noteNumber":72,"beat":21.5,"duration":0.5,"velocity":90},{"noteNumber":79,"beat":22,"duration":2,"velocity":90},{"noteNumber":69,"beat":24.5,"duration":0.5,"velocity":90},{"noteNumber":72,"beat":25,"duration":0.5,"velocity":90},{"noteNumber":69,"beat":25.5,"duration":0.5,"velocity":90},{"noteNumber":79,"beat":26,"duration":0.5,"velocity":90},{"noteNumber":77,"beat":26.5,"duration":0.5,"velocity":90},{"noteNumber":76,"beat":27,"duration":0.5,"velocity":90},{"noteNumber":72,"beat":27.5,"duration":0.5,"velocity":90},{"noteNumber":74,"beat":28,"duration":0.5,"velocity":90},{"noteNumber":72,"beat":28.5,"duration":0.5,"velocity":90},{"noteNumber":76,"beat":29,"duration":0.5,"velocity":90},{"noteNumber":74,"beat":29.5,"duration":0.5,"velocity":90},{"noteNumber":72,"beat":30,"duration":2,"velocity":90},{"noteNumber":81,"beat":32.5,"duration":0.5,"velocity":90},{"noteNumber":81,"beat":33,"duration":0.5,"velocity":90},{"noteNumber":81,"beat":33.5,"duration":0.5,"velocity":90},{"noteNumber":79,"beat":34,"duration":1,"velocity":90},{"noteNumber":76,"beat":35,"duration":0.5,"velocity":90},{"noteNumber":72,"beat":35.5,"duration":0.5,"velocity":90},{"noteNumber":74,"beat":36,"duration":0.5,"velocity":90},{"noteNumber":74,"beat":36.5,"duration":0.5,"velocity":90},{"noteNumber":72,"beat":37,"duration":0.5,"velocity":90},{"noteNumber":74,"beat":37.5,"duration":0.5,"velocity":90},{"noteNumber":76,"beat":38,"duration":2,"velocity":90},{"noteNumber":81,"beat":40.5,"duration":0.5,"velocity":90},{"noteNumber":81,"beat":41,"duration":0.5,"velocity":90},{"noteNumber":81,"beat":41.5,"duration":0.5,"velocity":90},{"noteNumber":79,"beat":42,"duration":1,"velocity":90},{"noteNumber":76,"beat":43,"duration":0.5,"velocity":90},{"noteNumber":72,"beat":43.5,"duration":0.5,"velocity":90},{"noteNumber":74,"beat":44,"duration":0.5,"velocity":90},{"noteNumber":72,"beat":44.5,"duration":0.5,"velocity":90},{"noteNumber":76,"beat":45,"duration":0.5,"velocity":90},{"noteNumber":74,"beat":45.5,"duration":0.5,"velocity":90},{"noteNumber":72,"beat":46,"duration":2,"velocity":90},{"noteNumber":81,"beat":48.5,"duration":0.5,"velocity":90},{"noteNumber":81,"beat":49,"duration":0.5,"velocity":90},{"noteNumber":81,"beat":49.5,"duration":0.5,"velocity":90},{"noteNumber":79,"beat":50,"duration":1,"velocity":90},{"noteNumber":76,"beat":51,"duration":0.5,"velocity":90},{"noteNumber":72,"beat":51.5,"duration":0.5,"velocity":90},{"noteNumber":74,"beat":52,"duration":0.5,"velocity":90},{"noteNumber":74,"beat":52.5,"duration":0.5,"velocity":90},{"noteNumber":72,"beat":53,"duration":0.5,"velocity":90},{"noteNumber":74,"beat":53.5,"duration":0.5,"velocity":90},{"noteNumber":76,"beat":54,"duration":1,"velocity":90},{"noteNumber":84,"beat":55,"duration":0.5,"velocity":90},{"noteNumber":83,"beat":55.5,"duration":0.5,"velocity":90},{"noteNumber":81,"beat":56,"duration":1,"velocity":90},{"noteNumber":81,"beat":57.5,"duration":0.5,"velocity":90},{"noteNumber":79,"beat":58,"duration":1,"velocity":90},{"noteNumber":76,"beat":59,"duration":0.5,"velocity":90},{"noteNumber":72,"beat":59.5,"duration":0.5,"velocity":90},{"noteNumber":74,"beat":60,"duration":0.5,"velocity":90},{"noteNumber":77,"beat":60.5,"duration":0.5,"velocity":90},{"noteNumber":76,"beat":61,"duration":0.5,"velocity":90},{"noteNumber":74,"beat":61.5,"duration":0.5,"velocity":90},{"noteNumber":72,"beat":62,"duration":2,"velocity":90}]},{"instrument":"SopranoSax","volume":100,"notes":[]},{"instrument":"FingerBass","volume":100,"notes":[{"noteNumber":48,"beat":0,"duration":1,"velocity":90},{"noteNumber":48,"beat":1,"duration":1,"velocity":90},{"noteNumber":48,"beat":2,"duration":1,"velocity":90},{"noteNumber":48,"beat":3,"duration":1,"velocity":90},{"noteNumber":48,"beat":4,"duration":1,"velocity":90},{"noteNumber":48,"beat":5,"duration":1,"velocity":90},{"noteNumber":52,"beat":6,"duration":1,"velocity":90},{"noteNumber":52,"beat":7,"duration":1,"velocity":90},{"noteNumber":53,"beat":8,"duration":1,"velocity":90},{"noteNumber":53,"beat":9,"duration":1,"velocity":90},{"noteNumber":48,"beat":10,"duration":1,"velocity":90},{"noteNumber":48,"beat":11,"duration":1,"velocity":90},{"noteNumber":50,"beat":12,"duration":1,"velocity":90},{"noteNumber":50,"beat":13,"duration":1,"velocity":90},{"noteNumber":55,"beat":14,"duration":1,"velocity":90},{"noteNumber":55,"beat":15,"duration":1,"velocity":90},{"noteNumber":48,"beat":16,"duration":1,"velocity":90},{"noteNumber":48,"beat":17,"duration":1,"velocity":90},{"noteNumber":48,"beat":18,"duration":1,"velocity":90},{"noteNumber":48,"beat":19,"duration":1,"velocity":90},{"noteNumber":48,"beat":20,"duration":1,"velocity":90},{"noteNumber":48,"beat":21,"duration":1,"velocity":90},{"noteNumber":52,"beat":22,"duration":1,"velocity":90},{"noteNumber":52,"beat":23,"duration":1,"velocity":90},{"noteNumber":53,"beat":24,"duration":1,"velocity":90},{"noteNumber":53,"beat":25,"duration":1,"velocity":90},{"noteNumber":48,"beat":26,"duration":1,"velocity":90},{"noteNumber":48,"beat":27,"duration":1,"velocity":90},{"noteNumber":55,"beat":28,"duration":1,"velocity":90},{"noteNumber":43,"beat":29,"duration":1,"velocity":90},{"noteNumber":48,"beat":30,"duration":1,"velocity":90},{"noteNumber":50,"beat":31,"duration":0.5,"velocity":90},{"noteNumber":52,"beat":31.5,"duration":0.5,"velocity":90},{"noteNumber":53,"beat":32,"duration":1,"velocity":90},{"noteNumber":53,"beat":33,"duration":1,"velocity":90},{"noteNumber":48,"beat":34,"duration":1,"velocity":90},{"noteNumber":48,"beat":35,"duration":1,"velocity":90},{"noteNumber":55,"beat":36,"duration":1,"velocity":90},{"noteNumber":55,"beat":37,"duration":1,"velocity":90},{"noteNumber":48,"beat":38,"duration":1,"velocity":90},{"noteNumber":48,"beat":39,"duration":1,"velocity":90},{"noteNumber":53,"beat":40,"duration":1,"velocity":90},{"noteNumber":53,"beat":41,"duration":1,"velocity":90},{"noteNumber":48,"beat":42,"duration":1,"velocity":90},{"noteNumber":48,"beat":43,"duration":1,"velocity":90},{"noteNumber":55,"beat":44,"duration":1,"velocity":90},{"noteNumber":43,"beat":45,"duration":1,"velocity":90},{"noteNumber":48,"beat":46,"duration":1,"velocity":90},{"noteNumber":50,"beat":47,"duration":0.5,"velocity":90},{"noteNumber":52,"beat":47.5,"duration":0.5,"velocity":90},{"noteNumber":53,"beat":48,"duration":1,"velocity":90},{"noteNumber":53,"beat":49,"duration":1,"velocity":90},{"noteNumber":48,"beat":50,"duration":1,"velocity":90},{"noteNumber":48,"beat":51,"duration":1,"velocity":90},{"noteNumber":55,"beat":52,"duration":1,"velocity":90},{"noteNumber":55,"beat":53,"duration":1,"velocity":90},{"noteNumber":48,"beat":54,"duration":1,"velocity":90},{"noteNumber":52,"beat":55,"duration":1,"velocity":90},{"noteNumber":53,"beat":56,"duration":1,"velocity":90},{"noteNumber":53,"beat":57,"duration":1,"velocity":90},{"noteNumber":48,"beat":58,"duration":1,"velocity":90},{"noteNumber":48,"beat":59,"duration":1,"velocity":90},{"noteNumber":55,"beat":60,"duration":1,"velocity":90},{"noteNumber":43,"beat":61,"duration":1,"velocity":90},{"noteNumber":48,"beat":62,"duration":2,"velocity":90}]},{"instrument":"Strings","volume":100,"notes":[]},{"instrument":"Percussion","volume":100,"notes":[]},{"instrument":"RockOrgan","volume":100,"notes":[]},{"instrument":"Piano","volume":100,"notes":[]},{"instrument":"Piano","volume":100,"notes":[]}]}