{"name":"Anchors aweigh","tempo":120,"songID":12,"userID":542731,"isOnRelease":true,"createdDate":1615739822374,"releasedDate":1615739822374,"lastUpdatedDate":1616605204418,"tracks":[{"instrument":"SopranoSax","volume":"96","notes":[{"noteNumber":58,"beat":0,"duration":2,"velocity":90},{"noteNumber":62,"beat":2,"duration":1,"velocity":90},{"noteNumber":65,"beat":3,"duration":1,"velocity":90},{"noteNumber":67,"beat":4,"duration":1,"velocity":90},{"noteNumber":62,"beat":5.5,"duration":0.5,"velocity":90},{"noteNumber":67,"beat":6,"duration":1,"velocity":90},{"noteNumber":70,"beat":8,"duration":2,"velocity":90},{"noteNumber":72,"beat":10,"duration":1,"velocity":90},{"noteNumber":65,"beat":11,"duration":1,"velocity":90},{"noteNumber":70,"beat":12,"duration":4,"velocity":90},{"noteNumber":67,"beat":16,"duration":2,"velocity":90},{"noteNumber":70,"beat":18,"duration":1,"velocity":90},{"noteNumber":67,"beat":19,"duration":1,"velocity":90},{"noteNumber":65,"beat":20,"duration":1,"velocity":90},{"noteNumber":67,"beat":21,"duration":1,"velocity":90},{"noteNumber":69,"beat":22,"duration":1,"velocity":90},{"noteNumber":70,"beat":23,"duration":1,"velocity":90},{"noteNumber":64,"beat":24,"duration":1,"velocity":90},{"noteNumber":67,"beat":25,"duration":1,"velocity":90},{"noteNumber":72,"beat":26,"duration":1,"velocity":90},{"noteNumber":70,"beat":27,"duration":1,"velocity":90},{"noteNumber":69,"beat":28,"duration":1,"velocity":90},{"noteNumber":65,"beat":29,"duration":1,"velocity":90},{"noteNumber":63,"beat":30,"duration":1,"velocity":90},{"noteNumber":60,"beat":31,"duration":1,"velocity":90},{"noteNumber":58,"beat":32,"duration":2,"velocity":90},{"noteNumber":62,"beat":34,"duration":1,"velocity":90},{"noteNumber":65,"beat":35,"duration":1,"velocity":90},{"noteNumber":67,"beat":36,"duration":1,"velocity":90},{"noteNumber":62,"beat":37.5,"duration":0.5,"velocity":90},{"noteNumber":67,"beat":38,"duration":2,"velocity":90},{"noteNumber":70,"beat":40,"duration":2,"velocity":90},{"noteNumber":72,"beat":42,"duration":1,"velocity":90},{"noteNumber":65,"beat":43,"duration":1,"velocity":90},{"noteNumber":70,"beat":44,"duration":4,"velocity":90},{"noteNumber":67,"beat":48,"duration":2,"velocity":90},{"noteNumber":70,"beat":50,"duration":1,"velocity":90},{"noteNumber":67,"beat":51,"duration":1,"velocity":90},{"noteNumber":65,"beat":52,"duration":1,"velocity":90},{"noteNumber":67,"beat":53,"duration":1,"velocity":90},{"noteNumber":69,"beat":54,"duration":1,"velocity":90},{"noteNumber":70,"beat":55,"duration":1,"velocity":90},{"noteNumber":74,"beat":56,"duration":0.5,"velocity":90},{"noteNumber":65,"beat":56.75,"duration":0.25,"velocity":90},{"noteNumber":64,"beat":57,"duration":0.5,"velocity":90},{"noteNumber":65,"beat":57.5,"duration":0.5,"velocity":90},{"noteNumber":72,"beat":58,"duration":0.5,"velocity":90},{"noteNumber":65,"beat":58.75,"duration":0.25,"velocity":90},{"noteNumber":64,"beat":59,"duration":0.5,"velocity":90},{"noteNumber":65,"beat":59.5,"duration":0.5,"velocity":90},{"noteNumber":70,"beat":60,"duration":4,"velocity":90}]},{"instrument":"SopranoSax","volume":100,"notes":[]},{"instrument":"FingerBass","volume":100,"notes":[{"noteNumber":58,"beat":0,"duration":1,"velocity":90},{"noteNumber":53,"beat":1,"duration":1,"velocity":90},{"noteNumber":58,"beat":2,"duration":1,"velocity":90},{"noteNumber":57,"beat":3,"duration":1,"velocity":90},{"noteNumber":55,"beat":4,"duration":1,"velocity":90},{"noteNumber":62,"beat":5,"duration":1,"velocity":90},{"noteNumber":55,"beat":6,"duration":0.5,"velocity":90},{"noteNumber":57,"beat":6.5,"duration":0.5,"velocity":90},{"noteNumber":58,"beat":7,"duration":0.5,"velocity":90},{"noteNumber":60,"beat":7.5,"duration":0.5,"velocity":90},{"noteNumber":62,"beat":8,"duration":1,"velocity":90},{"noteNumber":58,"beat":9,"duration":1,"velocity":90},{"noteNumber":53,"beat":10,"duration":1,"velocity":90},{"noteNumber":65,"beat":11,"duration":1,"velocity":90},{"noteNumber":58,"beat":12,"duration":1,"velocity":90},{"noteNumber":46,"beat":13,"duration":1,"velocity":90},{"noteNumber":48,"beat":14,"duration":1,"velocity":90},{"noteNumber":50,"beat":15,"duration":1,"velocity":90},{"noteNumber":63,"beat":16,"duration":1,"velocity":90},{"noteNumber":58,"beat":17,"duration":1,"velocity":90},{"noteNumber":63,"beat":18,"duration":1,"velocity":90},{"noteNumber":63,"beat":19,"duration":1,"velocity":90},{"noteNumber":62,"beat":20,"duration":1,"velocity":90},{"noteNumber":61,"beat":21,"duration":1,"velocity":90},{"noteNumber":60,"beat":22,"duration":1,"velocity":90},{"noteNumber":58,"beat":23,"duration":1,"velocity":90},{"noteNumber":60,"beat":24,"duration":1,"velocity":90},{"noteNumber":48,"beat":25,"duration":1,"velocity":90},{"noteNumber":50,"beat":26,"duration":1,"velocity":90},{"noteNumber":52,"beat":27,"duration":1,"velocity":90},{"noteNumber":53,"beat":28,"duration":1,"velocity":90},{"noteNumber":53,"beat":29,"duration":1,"velocity":90},{"noteNumber":55,"beat":30,"duration":1,"velocity":90},{"noteNumber":57,"beat":31,"duration":1,"velocity":90},{"noteNumber":58,"beat":32,"duration":1,"velocity":90},{"noteNumber":53,"beat":33,"duration":1,"velocity":90},{"noteNumber":58,"beat":34,"duration":1,"velocity":90},{"noteNumber":57,"beat":35,"duration":1,"velocity":90},{"noteNumber":55,"beat":36,"duration":1,"velocity":90},{"noteNumber":62,"beat":37,"duration":1,"velocity":90},{"noteNumber":55,"beat":38,"duration":0.5,"velocity":90},{"noteNumber":57,"beat":38.5,"duration":0.5,"velocity":90},{"noteNumber":58,"beat":39,"duration":0.5,"velocity":90},{"noteNumber":60,"beat":39.5,"duration":0.5,"velocity":90},{"noteNumber":62,"beat":40,"duration":1,"velocity":90},{"noteNumber":58,"beat":41,"duration":1,"velocity":90},{"noteNumber":53,"beat":42,"duration":1,"velocity":90},{"noteNumber":65,"beat":43,"duration":1,"velocity":90},{"noteNumber":58,"beat":44,"duration":1,"velocity":90},{"noteNumber":46,"beat":45,"duration":1,"velocity":90},{"noteNumber":48,"beat":46,"duration":1,"velocity":90},{"noteNumber":50,"beat":47,"duration":1,"velocity":90},{"noteNumber":63,"beat":48,"duration":1,"velocity":90},{"noteNumber":58,"beat":49,"duration":1,"velocity":90},{"noteNumber":63,"beat":50,"duration":1,"velocity":90},{"noteNumber":63,"beat":51,"duration":1,"velocity":90},{"noteNumber":62,"beat":52,"duration":1,"velocity":90},{"noteNumber":61,"beat":53,"duration":1,"velocity":90},{"noteNumber":60,"beat":54,"duration":1,"velocity":90},{"noteNumber":58,"beat":55,"duration":1,"velocity":90},{"noteNumber":53,"beat":56,"duration":0.5,"velocity":90},{"noteNumber":53,"beat":58,"duration":0.5,"velocity":90},{"noteNumber":58,"beat":60,"duration":4,"velocity":90}]},{"instrument":"Strings","volume":100,"notes":[]},{"instrument":"Percussion","volume":100,"notes":[{"noteNumber":57,"beat":0,"duration":1,"velocity":90},{"noteNumber":72,"beat":0,"duration":0.25,"velocity":90},{"noteNumber":72,"beat":0.5,"duration":0.25,"velocity":90},{"noteNumber":72,"beat":0.75,"duration":0.25,"velocity":90},{"noteNumber":57,"beat":1,"duration":1,"velocity":90},{"noteNumber":72,"beat":1,"duration":0.25,"velocity":90},{"noteNumber":72,"beat":1.5,"duration":0.25,"velocity":90},{"noteNumber":72,"beat":1.75,"duration":0.25,"velocity":90},{"noteNumber":57,"beat":2,"duration":1,"velocity":90},{"noteNumber":72,"beat":2,"duration":0.25,"velocity":90},{"noteNumber":72,"beat":2.5,"duration":0.25,"velocity":90},{"noteNumber":72,"beat":2.75,"duration":0.25,"velocity":90},{"noteNumber":57,"beat":3,"duration":1,"velocity":90},{"noteNumber":72,"beat":3,"duration":0.25,"velocity":90},{"noteNumber":72,"beat":3.5,"duration":0.25,"velocity":90},{"noteNumber":72,"beat":3.75,"duration":0.25,"velocity":90},{"noteNumber":57,"beat":4,"duration":1,"velocity":90},{"noteNumber":72,"beat":4,"duration":0.25,"velocity":90},{"noteNumber":72,"beat":4.5,"duration":0.25,"velocity":90},{"noteNumber":72,"beat":4.75,"duration":0.25,"velocity":90},{"noteNumber":57,"beat":5,"duration":1,"velocity":90},{"noteNumber":72,"beat":5,"duration":0.25,"velocity":90},{"noteNumber":72,"beat":5.5,"duration":0.25,"velocity":90},{"noteNumber":72,"beat":5.75,"duration":0.25,"velocity":90},{"noteNumber":57,"beat":6,"duration":1,"velocity":90},{"noteNumber":72,"beat":6,"duration":0.25,"velocity":90},{"noteNumber":72,"beat":6.5,"duration":0.25,"velocity":90},{"noteNumber":72,"beat":6.75,"duration":0.25,"velocity":90},{"noteNumber":57,"beat":7,"duration":1,"velocity":90},{"noteNumber":72,"beat":7,"duration":0.25,"velocity":90},{"noteNumber":72,"beat":7.5,"duration":0.25,"velocity":90},{"noteNumber":72,"beat":7.75,"duration":0.25,"velocity":90},{"noteNumber":57,"beat":8,"duration":1,"velocity":90},{"noteNumber":72,"beat":8,"duration":0.25,"velocity":90},{"noteNumber":72,"beat":8.5,"duration":0.25,"velocity":90},{"noteNumber":72,"beat":8.75,"duration":0.25,"velocity":90},{"noteNumber":57,"beat":9,"duration":1,"velocity":90},{"noteNumber":72,"beat":9,"duration":0.25,"velocity":90},{"noteNumber":72,"beat":9.5,"duration":0.25,"velocity":90},{"noteNumber":72,"beat":9.75,"duration":0.25,"velocity":90},{"noteNumber":57,"beat":10,"duration":1,"velocity":90},{"noteNumber":72,"beat":10,"duration":0.25,"velocity":90},{"noteNumber":72,"beat":10.5,"duration":0.25,"velocity":90},{"noteNumber":72,"beat":10.75,"duration":0.25,"velocity":90},{"noteNumber":57,"beat":11,"duration":1,"velocity":90},{"noteNumber":72,"beat":11,"duration":0.25,"velocity":90},{"noteNumber":72,"beat":11.5,"duration":0.25,"velocity":90},{"noteNumber":72,"beat":11.75,"duration":0.25,"velocity":90},{"noteNumber":57,"beat":12,"duration":1,"velocity":90},{"noteNumber":72,"beat":12,"duration":0.25,"velocity":90},{"noteNumber":72,"beat":12.5,"duration":0.25,"velocity":90},{"noteNumber":72,"beat":12.75,"duration":0.25,"velocity":90},{"noteNumber":57,"beat":13,"duration":1,"velocity":90},{"noteNumber":72,"beat":13,"duration":0.25,"velocity":90},{"noteNumber":72,"beat":13.5,"duration":0.25,"velocity":90},{"noteNumber":72,"beat":13.75,"duration":0.25,"velocity":90},{"noteNumber":57,"beat":14,"duration":1,"velocity":90},{"noteNumber":72,"beat":14,"duration":0.25,"velocity":90},{"noteNumber":72,"beat":14.5,"duration":0.25,"velocity":90},{"noteNumber":72,"beat":14.75,"duration":0.25,"velocity":90},{"noteNumber":57,"beat":15,"duration":1,"velocity":90},{"noteNumber":72,"beat":15,"duration":0.25,"velocity":90},{"noteNumber":72,"beat":15.5,"duration":0.25,"velocity":90},{"noteNumber":72,"beat":15.75,"duration":0.25,"velocity":90},{"noteNumber":57,"beat":16,"duration":1,"velocity":90},{"noteNumber":72,"beat":16,"duration":0.25,"velocity":90},{"noteNumber":72,"beat":16.5,"duration":0.25,"velocity":90},{"noteNumber":72,"beat":16.75,"duration":0.25,"velocity":90},{"noteNumber":57,"beat":17,"duration":1,"velocity":90},{"noteNumber":72,"beat":17,"duration":0.25,"velocity":90},{"noteNumber":72,"beat":17.5,"duration":0.25,"velocity":90},{"noteNumber":72,"beat":17.75,"duration":0.25,"velocity":90},{"noteNumber":57,"beat":18,"duration":1,"velocity":90},{"noteNumber":72,"beat":18,"duration":0.25,"velocity":90},{"noteNumber":72,"beat":18.5,"duration":0.25,"velocity":90},{"noteNumber":72,"beat":18.75,"duration":0.25,"velocity":90},{"noteNumber":57,"beat":19,"duration":1,"velocity":90},{"noteNumber":72,"beat":19,"duration":0.25,"velocity":90},{"noteNumber":72,"beat":19.5,"duration":0.25,"velocity":90},{"noteNumber":72,"beat":19.75,"duration":0.25,"velocity":90},{"noteNumber":57,"beat":20,"duration":1,"velocity":90},{"noteNumber":72,"beat":20,"duration":0.25,"velocity":90},{"noteNumber":72,"beat":20.5,"duration":0.25,"velocity":90},{"noteNumber":72,"beat":20.75,"duration":0.25,"velocity":90},{"noteNumber":57,"beat":21,"duration":1,"velocity":90},{"noteNumber":72,"beat":21,"duration":0.25,"velocity":90},{"noteNumber":72,"beat":21.5,"duration":0.25,"velocity":90},{"noteNumber":72,"beat":21.75,"duration":0.25,"velocity":90},{"noteNumber":57,"beat":22,"duration":1,"velocity":90},{"noteNumber":72,"beat":22,"duration":0.25,"velocity":90},{"noteNumber":72,"beat":22.5,"duration":0.25,"velocity":90},{"noteNumber":72,"beat":22.75,"duration":0.25,"velocity":90},{"noteNumber":57,"beat":23,"duration":1,"velocity":90},{"noteNumber":72,"beat":23,"duration":0.25,"velocity":90},{"noteNumber":72,"beat":23.5,"duration":0.25,"velocity":90},{"noteNumber":72,"beat":23.75,"duration":0.25,"velocity":90},{"noteNumber":72,"beat":24,"duration":0.25,"velocity":90},{"noteNumber":57,"beat":24,"duration":1,"velocity":90},{"noteNumber":72,"beat":24.5,"duration":0.25,"velocity":90},{"noteNumber":72,"beat":24.75,"duration":0.25,"velocity":90},{"noteNumber":72,"beat":25,"duration":0.25,"velocity":90},{"noteNumber":57,"beat":25,"duration":1,"velocity":90},{"noteNumber":72,"beat":25.5,"duration":0.25,"velocity":90},{"noteNumber":72,"beat":25.75,"duration":0.25,"velocity":90},{"noteNumber":72,"beat":26,"duration":0.25,"velocity":90},{"noteNumber":57,"beat":26,"duration":1,"velocity":90},{"noteNumber":72,"beat":26.5,"duration":0.25,"velocity":90},{"noteNumber":72,"beat":26.75,"duration":0.25,"velocity":90},{"noteNumber":72,"beat":27,"duration":0.25,"velocity":90},{"noteNumber":57,"beat":27,"duration":1,"velocity":90},{"noteNumber":72,"beat":27.5,"duration":0.25,"velocity":90},{"noteNumber":72,"beat":27.75,"duration":0.25,"velocity":90},{"noteNumber":72,"beat":28,"duration":0.25,"velocity":90},{"noteNumber":57,"beat":28,"duration":1,"velocity":90},{"noteNumber":72,"beat":28.5,"duration":0.25,"velocity":90},{"noteNumber":72,"beat":28.75,"duration":0.25,"velocity":90},{"noteNumber":72,"beat":29,"duration":0.25,"velocity":90},{"noteNumber":57,"beat":29,"duration":1,"velocity":90},{"noteNumber":72,"beat":29.5,"duration":0.25,"velocity":90},{"noteNumber":72,"beat":29.75,"duration":0.25,"velocity":90},{"noteNumber":72,"beat":30,"duration":0.25,"velocity":90},{"noteNumber":57,"beat":30,"duration":1,"velocity":90},{"noteNumber":72,"beat":30.5,"duration":0.25,"velocity":90},{"noteNumber":72,"beat":30.75,"duration":0.25,"velocity":90},{"noteNumber":72,"beat":31,"duration":0.25,"velocity":90},{"noteNumber":57,"beat":31,"duration":1,"velocity":90},{"noteNumber":72,"beat":31.5,"duration":0.25,"velocity":90},{"noteNumber":72,"beat":31.75,"duration":0.25,"velocity":90},{"noteNumber":72,"beat":32,"duration":0.25,"velocity":90},{"noteNumber":57,"beat":32,"duration":1,"velocity":90},{"noteNumber":72,"beat":32.5,"duration":0.25,"velocity":90},{"noteNumber":72,"beat":32.75,"duration":0.25,"velocity":90},{"noteNumber":72,"beat":33,"duration":0.25,"velocity":90},{"noteNumber":57,"beat":33,"duration":1,"velocity":90},{"noteNumber":72,"beat":33.5,"duration":0.25,"velocity":90},{"noteNumber":72,"beat":33.75,"duration":0.25,"velocity":90},{"noteNumber":72,"beat":34,"duration":0.25,"velocity":90},{"noteNumber":57,"beat":34,"duration":1,"velocity":90},{"noteNumber":72,"beat":34.5,"duration":0.25,"velocity":90},{"noteNumber":72,"beat":34.75,"duration":0.25,"velocity":90},{"noteNumber":72,"beat":35,"duration":0.25,"velocity":90},{"noteNumber":57,"beat":35,"duration":1,"velocity":90},{"noteNumber":72,"beat":35.5,"duration":0.25,"velocity":90},{"noteNumber":72,"beat":35.75,"duration":0.25,"velocity":90},{"noteNumber":72,"beat":36,"duration":0.25,"velocity":90},{"noteNumber":57,"beat":36,"duration":1,"velocity":90},{"noteNumber":72,"beat":36.5,"duration":0.25,"velocity":90},{"noteNumber":72,"beat":36.75,"duration":0.25,"velocity":90},{"noteNumber":72,"beat":37,"duration":0.25,"velocity":90},{"noteNumber":57,"beat":37,"duration":1,"velocity":90},{"noteNumber":72,"beat":37.5,"duration":0.25,"velocity":90},{"noteNumber":72,"beat":37.75,"duration":0.25,"velocity":90},{"noteNumber":72,"beat":38,"duration":0.25,"velocity":90},{"noteNumber":57,"beat":38,"duration":1,"velocity":90},{"noteNumber":72,"beat":38.5,"duration":0.25,"velocity":90},{"noteNumber":72,"beat":38.75,"duration":0.25,"velocity":90},{"noteNumber":72,"beat":39,"duration":0.25,"velocity":90},{"noteNumber":57,"beat":39,"duration":1,"velocity":90},{"noteNumber":72,"beat":39.5,"duration":0.25,"velocity":90},{"noteNumber":72,"beat":39.75,"duration":0.25,"velocity":90},{"noteNumber":72,"beat":40,"duration":0.25,"velocity":90},{"noteNumber":57,"beat":40,"duration":1,"velocity":90},{"noteNumber":72,"beat":40.5,"duration":0.25,"velocity":90},{"noteNumber":72,"beat":40.75,"duration":0.25,"velocity":90},{"noteNumber":72,"beat":41,"duration":0.25,"velocity":90},{"noteNumber":57,"beat":41,"duration":1,"velocity":90},{"noteNumber":72,"beat":41.5,"duration":0.25,"velocity":90},{"noteNumber":72,"beat":41.75,"duration":0.25,"velocity":90},{"noteNumber":72,"beat":42,"duration":0.25,"velocity":90},{"noteNumber":57,"beat":42,"duration":1,"velocity":90},{"noteNumber":72,"beat":42.5,"duration":0.25,"velocity":90},{"noteNumber":72,"beat":42.75,"duration":0.25,"velocity":90},{"noteNumber":72,"beat":43,"duration":0.25,"velocity":90},{"noteNumber":57,"beat":43,"duration":1,"velocity":90},{"noteNumber":72,"beat":43.5,"duration":0.25,"velocity":90},{"noteNumber":72,"beat":43.75,"duration":0.25,"velocity":90},{"noteNumber":72,"beat":44,"duration":0.25,"velocity":90},{"noteNumber":57,"beat":44,"duration":1,"velocity":90},{"noteNumber":72,"beat":44.5,"duration":0.25,"velocity":90},{"noteNumber":72,"beat":44.75,"duration":0.25,"velocity":90},{"noteNumber":72,"beat":45,"duration":0.25,"velocity":90},{"noteNumber":57,"beat":45,"duration":1,"velocity":90},{"noteNumber":72,"beat":45.5,"duration":0.25,"velocity":90},{"noteNumber":72,"beat":45.75,"duration":0.25,"velocity":90},{"noteNumber":72,"beat":46,"duration":0.25,"velocity":90},{"noteNumber":57,"beat":46,"duration":1,"velocity":90},{"noteNumber":72,"beat":46.5,"duration":0.25,"velocity":90},{"noteNumber":72,"beat":46.75,"duration":0.25,"velocity":90},{"noteNumber":72,"beat":47,"duration":0.25,"velocity":90},{"noteNumber":57,"beat":47,"duration":1,"velocity":90},{"noteNumber":72,"beat":47.5,"duration":0.25,"velocity":90},{"noteNumber":72,"beat":47.75,"duration":0.25,"velocity":90},{"noteNumber":72,"beat":48,"duration":0.25,"velocity":90},{"noteNumber":57,"beat":48,"duration":1,"velocity":90},{"noteNumber":72,"beat":48.5,"duration":0.25,"velocity":90},{"noteNumber":72,"beat":48.75,"duration":0.25,"velocity":90},{"noteNumber":72,"beat":49,"duration":0.25,"velocity":90},{"noteNumber":57,"beat":49,"duration":1,"velocity":90},{"noteNumber":72,"beat":49.5,"duration":0.25,"velocity":90},{"noteNumber":72,"beat":49.75,"duration":0.25,"velocity":90},{"noteNumber":72,"beat":50,"duration":0.25,"velocity":90},{"noteNumber":57,"beat":50,"duration":1,"velocity":90},{"noteNumber":72,"beat":50.5,"duration":0.25,"velocity":90},{"noteNumber":72,"beat":50.75,"duration":0.25,"velocity":90},{"noteNumber":72,"beat":51,"duration":0.25,"velocity":90},{"noteNumber":57,"beat":51,"duration":1,"velocity":90},{"noteNumber":72,"beat":51.5,"duration":0.25,"velocity":90},{"noteNumber":72,"beat":51.75,"duration":0.25,"velocity":90},{"noteNumber":72,"beat":52,"duration":0.25,"velocity":90},{"noteNumber":57,"beat":52,"duration":1,"velocity":90},{"noteNumber":72,"beat":52.5,"duration":0.25,"velocity":90},{"noteNumber":72,"beat":52.75,"duration":0.25,"velocity":90},{"noteNumber":72,"beat":53,"duration":0.25,"velocity":90},{"noteNumber":57,"beat":53,"duration":1,"velocity":90},{"noteNumber":72,"beat":53.5,"duration":0.25,"velocity":90},{"noteNumber":72,"beat":53.75,"duration":0.25,"velocity":90},{"noteNumber":72,"beat":54,"duration":0.25,"velocity":90},{"noteNumber":57,"beat":54,"duration":1,"velocity":90},{"noteNumber":72,"beat":54.5,"duration":0.25,"velocity":90},{"noteNumber":72,"beat":54.75,"duration":0.25,"velocity":90},{"noteNumber":72,"beat":55,"duration":0.25,"velocity":90},{"noteNumber":57,"beat":55,"duration":1,"velocity":90},{"noteNumber":72,"beat":55.5,"duration":0.25,"velocity":90},{"noteNumber":72,"beat":55.75,"duration":0.25,"velocity":90},{"noteNumber":72,"beat":56,"duration":0.25,"velocity":90},{"noteNumber":57,"beat":56,"duration":1,"velocity":90},{"noteNumber":72,"beat":56.5,"duration":0.25,"velocity":90},{"noteNumber":72,"beat":56.75,"duration":0.25,"velocity":90},{"noteNumber":72,"beat":57,"duration":0.25,"velocity":90},{"noteNumber":57,"beat":57,"duration":1,"velocity":90},{"noteNumber":72,"beat":57.5,"duration":0.25,"velocity":90},{"noteNumber":72,"beat":57.75,"duration":0.25,"velocity":90},{"noteNumber":72,"beat":58,"duration":0.25,"velocity":90},{"noteNumber":57,"beat":58,"duration":1,"velocity":90},{"noteNumber":72,"beat":58.5,"duration":0.25,"velocity":90},{"noteNumber":72,"beat":58.75,"duration":0.25,"velocity":90},{"noteNumber":72,"beat":59,"duration":0.25,"velocity":90},{"noteNumber":57,"beat":59,"duration":1,"velocity":90},{"noteNumber":72,"beat":59.5,"duration":0.25,"velocity":90},{"noteNumber":72,"beat":59.75,"duration":0.25,"velocity":90},{"noteNumber":92,"beat":60,"duration":4,"velocity":90},{"noteNumber":57,"beat":60,"duration":4,"velocity":90}]},{"instrument":"Piano","volume":"69","notes":[{"noteNumber":65,"beat":0.5,"duration":0.5,"velocity":90},{"noteNumber":62,"beat":0.5,"duration":0.5,"velocity":90},{"noteNumber":65,"beat":1.5,"duration":0.5,"velocity":90},{"noteNumber":62,"beat":1.5,"duration":0.5,"velocity":90},{"noteNumber":65,"beat":2.5,"duration":0.5,"velocity":90},{"noteNumber":62,"beat":2.5,"duration":0.5,"velocity":90},{"noteNumber":65,"beat":3.5,"duration":0.5,"velocity":90},{"noteNumber":62,"beat":3.5,"duration":0.5,"velocity":90},{"noteNumber":67,"beat":4.5,"duration":0.5,"velocity":90},{"noteNumber":62,"beat":4.5,"duration":0.5,"velocity":90},{"noteNumber":67,"beat":5.5,"duration":0.5,"velocity":90},{"noteNumber":62,"beat":5.5,"duration":0.5,"velocity":90},{"noteNumber":67,"beat":6.5,"duration":0.5,"velocity":90},{"noteNumber":62,"beat":6.5,"duration":0.5,"velocity":90},{"noteNumber":67,"beat":7.5,"duration":0.5,"velocity":90},{"noteNumber":62,"beat":7.5,"duration":0.5,"velocity":90},{"noteNumber":65,"beat":8.5,"duration":0.5,"velocity":90},{"noteNumber":62,"beat":8.5,"duration":0.5,"velocity":90},{"noteNumber":65,"beat":9.5,"duration":0.5,"velocity":90},{"noteNumber":62,"beat":9.5,"duration":0.5,"velocity":90},{"noteNumber":65,"beat":10.5,"duration":0.5,"velocity":90},{"noteNumber":62,"beat":10.5,"duration":0.5,"velocity":90},{"noteNumber":65,"beat":11.5,"duration":0.5,"velocity":90},{"noteNumber":62,"beat":11.5,"duration":0.5,"velocity":90},{"noteNumber":65,"beat":12.5,"duration":0.5,"velocity":90},{"noteNumber":62,"beat":12.5,"duration":0.5,"velocity":90},{"noteNumber":65,"beat":13.5,"duration":0.5,"velocity":90},{"noteNumber":62,"beat":13.5,"duration":0.5,"velocity":90},{"noteNumber":65,"beat":14.5,"duration":0.5,"velocity":90},{"noteNumber":62,"beat":14.5,"duration":0.5,"velocity":90},{"noteNumber":65,"beat":15.5,"duration":0.5,"velocity":90},{"noteNumber":62,"beat":15.5,"duration":0.5,"velocity":90},{"noteNumber":67,"beat":16.5,"duration":0.5,"velocity":90},{"noteNumber":63,"beat":16.5,"duration":0.5,"velocity":90},{"noteNumber":63,"beat":17.5,"duration":0.5,"velocity":90},{"noteNumber":67,"beat":17.5,"duration":0.5,"velocity":90},{"noteNumber":63,"beat":18.5,"duration":0.5,"velocity":90},{"noteNumber":67,"beat":18.5,"duration":0.5,"velocity":90},{"noteNumber":63,"beat":19.5,"duration":0.5,"velocity":90},{"noteNumber":67,"beat":19.5,"duration":0.5,"velocity":90},{"noteNumber":65,"beat":20.5,"duration":0.5,"velocity":90},{"noteNumber":62,"beat":20.5,"duration":0.5,"velocity":90},{"noteNumber":62,"beat":21.5,"duration":0.5,"velocity":90},{"noteNumber":65,"beat":21.5,"duration":0.5,"velocity":90},{"noteNumber":62,"beat":22.5,"duration":0.5,"velocity":90},{"noteNumber":65,"beat":22.5,"duration":0.5,"velocity":90},{"noteNumber":62,"beat":23.5,"duration":0.5,"velocity":90},{"noteNumber":65,"beat":23.5,"duration":0.5,"velocity":90},{"noteNumber":67,"beat":24.5,"duration":0.5,"velocity":90},{"noteNumber":64,"beat":24.5,"duration":0.5,"velocity":90},{"noteNumber":67,"beat":25.5,"duration":0.5,"velocity":90},{"noteNumber":64,"beat":25.5,"duration":0.5,"velocity":90},{"noteNumber":67,"beat":26.5,"duration":0.5,"velocity":90},{"noteNumber":64,"beat":26.5,"duration":0.5,"velocity":90},{"noteNumber":67,"beat":27.5,"duration":0.5,"velocity":90},{"noteNumber":64,"beat":27.5,"duration":0.5,"velocity":90},{"noteNumber":57,"beat":28.5,"duration":0.5,"velocity":90},{"noteNumber":65,"beat":28.5,"duration":0.5,"velocity":90},{"noteNumber":57,"beat":29.5,"duration":0.5,"velocity":90},{"noteNumber":65,"beat":29.5,"duration":0.5,"velocity":90},{"noteNumber":57,"beat":30.5,"duration":0.5,"velocity":90},{"noteNumber":65,"beat":30.5,"duration":0.5,"velocity":90},{"noteNumber":57,"beat":31.5,"duration":0.5,"velocity":90},{"noteNumber":65,"beat":31.5,"duration":0.5,"velocity":90},{"noteNumber":65,"beat":32.5,"duration":0.5,"velocity":90},{"noteNumber":62,"beat":32.5,"duration":0.5,"velocity":90},{"noteNumber":65,"beat":33.5,"duration":0.5,"velocity":90},{"noteNumber":62,"beat":33.5,"duration":0.5,"velocity":90},{"noteNumber":65,"beat":34.5,"duration":0.5,"velocity":90},{"noteNumber":62,"beat":34.5,"duration":0.5,"velocity":90},{"noteNumber":62,"beat":35.5,"duration":0.5,"velocity":90},{"noteNumber":65,"beat":35.5,"duration":0.5,"velocity":90},{"noteNumber":67,"beat":36.5,"duration":0.5,"velocity":90},{"noteNumber":62,"beat":36.5,"duration":0.5,"velocity":90},{"noteNumber":62,"beat":37.5,"duration":0.5,"velocity":90},{"noteNumber":67,"beat":37.5,"duration":0.5,"velocity":90},{"noteNumber":62,"beat":38.5,"duration":0.5,"velocity":90},{"noteNumber":67,"beat":38.5,"duration":0.5,"velocity":90},{"noteNumber":62,"beat":39.5,"duration":0.5,"velocity":90},{"noteNumber":67,"beat":39.5,"duration":0.5,"velocity":90},{"noteNumber":65,"beat":40.5,"duration":0.5,"velocity":90},{"noteNumber":62,"beat":40.5,"duration":0.5,"velocity":90},{"noteNumber":65,"beat":41.5,"duration":0.5,"velocity":90},{"noteNumber":62,"beat":41.5,"duration":0.5,"velocity":90},{"noteNumber":65,"beat":42.5,"duration":0.5,"velocity":90},{"noteNumber":62,"beat":42.5,"duration":0.5,"velocity":90},{"noteNumber":65,"beat":43.5,"duration":0.5,"velocity":90},{"noteNumber":62,"beat":43.5,"duration":0.5,"velocity":90},{"noteNumber":65,"beat":44.5,"duration":0.5,"velocity":90},{"noteNumber":62,"beat":44.5,"duration":0.5,"velocity":90},{"noteNumber":65,"beat":45.5,"duration":0.5,"velocity":90},{"noteNumber":62,"beat":45.5,"duration":0.5,"velocity":90},{"noteNumber":65,"beat":46.5,"duration":0.5,"velocity":90},{"noteNumber":62,"beat":46.5,"duration":0.5,"velocity":90},{"noteNumber":65,"beat":47.5,"duration":0.5,"velocity":90},{"noteNumber":62,"beat":47.5,"duration":0.5,"velocity":90},{"noteNumber":67,"beat":48.5,"duration":0.5,"velocity":90},{"noteNumber":63,"beat":48.5,"duration":0.5,"velocity":90},{"noteNumber":63,"beat":49.5,"duration":0.5,"velocity":90},{"noteNumber":67,"beat":49.5,"duration":0.5,"velocity":90},{"noteNumber":63,"beat":50.5,"duration":0.5,"velocity":90},{"noteNumber":67,"beat":50.5,"duration":0.5,"velocity":90},{"noteNumber":63,"beat":51.5,"duration":0.5,"velocity":90},{"noteNumber":67,"beat":51.5,"duration":0.5,"velocity":90},{"noteNumber":65,"beat":52.5,"duration":0.5,"velocity":90},{"noteNumber":62,"beat":52.5,"duration":0.5,"velocity":90},{"noteNumber":62,"beat":53.5,"duration":0.5,"velocity":90},{"noteNumber":65,"beat":53.5,"duration":0.5,"velocity":90},{"noteNumber":62,"beat":54.5,"duration":0.5,"velocity":90},{"noteNumber":65,"beat":54.5,"duration":0.5,"velocity":90},{"noteNumber":62,"beat":55.5,"duration":0.5,"velocity":90},{"noteNumber":65,"beat":55.5,"duration":0.5,"velocity":90},{"noteNumber":53,"beat":56,"duration":0.5,"velocity":90},{"noteNumber":60,"beat":56,"duration":0.5,"velocity":90},{"noteNumber":65,"beat":56,"duration":0.5,"velocity":90},{"noteNumber":53,"beat":58,"duration":0.5,"velocity":90},{"noteNumber":65,"beat":58,"duration":0.5,"velocity":90},{"noteNumber":60,"beat":58,"duration":0.5,"velocity":90},{"noteNumber":58,"beat":60,"duration":4,"velocity":90},{"noteNumber":62,"beat":60,"duration":4,"velocity":90},{"noteNumber":65,"beat":60,"duration":4,"velocity":90}]},{"instrument":"Piano","volume":100,"notes":[]},{"instrument":"Piano","volume":100,"notes":[]}]}