{"name": "test5", "tempo": 120, "songID": 13, "userID": 542731, "isOnRelease": false, "createdDate": 1615746645384, "releasedDate": 1615746645384, "lastUpdatedDate": 1616605226131, "tracks": [{"instrument": "Piano", "volume": 90, "notes": [{"noteNumber": 72, "beat": 0, "duration": 0.5, "velocity": 90}, {"noteNumber": 65, "beat": 0.5, "duration": 0.5, "velocity": 90}, {"noteNumber": 72, "beat": 1, "duration": 0.5, "velocity": 90}, {"noteNumber": 65, "beat": 1.5, "duration": 0.5, "velocity": 90}, {"noteNumber": 74, "beat": 2, "duration": 0.5, "velocity": 90}, {"noteNumber": 65, "beat": 2.5, "duration": 0.5, "velocity": 90}, {"noteNumber": 74, "beat": 3, "duration": 0.5, "velocity": 90}, {"noteNumber": 65, "beat": 3.5, "duration": 0.5, "velocity": 90}, {"noteNumber": 64, "beat": 4, "duration": 0.5, "velocity": 90}, {"noteNumber": 65, "beat": 4.5, "duration": 0.5, "velocity": 90}, {"noteNumber": 67, "beat": 5, "duration": 0.5, "velocity": 90}, {"noteNumber": 64, "beat": 5.5, "duration": 0.5, "velocity": 90}, {"noteNumber": 65, "beat": 6, "duration": 0.5, "velocity": 90}, {"noteNumber": 60, "beat": 7, "duration": 0.5, "velocity": 90}, {"noteNumber": 60, "beat": 7.5, "duration": 0.5, "velocity": 90}, {"noteNumber": 65, "beat": 8, "duration": 0.5, "velocity": 90}, {"noteNumber": 65, "beat": 9.5, "duration": 0.5, "velocity": 90}, {"noteNumber": 65, "beat": 10, "duration": 0.5, "velocity": 90}, {"noteNumber": 64, "beat": 11, "duration": 0.5, "velocity": 90}, {"noteNumber": 65, "beat": 11.5, "duration": 0.5, "velocity": 90}, {"noteNumber": 62, "beat": 12, "duration": 0.5, "velocity": 90}, {"noteNumber": 64, "beat": 12.5, "duration": 0.5, "velocity": 90}, {"noteNumber": 65, "beat": 13, "duration": 0.5, "velocity": 90}, {"noteNumber": 62, "beat": 13.5, "duration": 0.5, "velocity": 90}, {"noteNumber": 60, "beat": 14, "duration": 0.5, "velocity": 90}, {"noteNumber": 60, "beat": 15, "duration": 0.5, "velocity": 90}, {"noteNumber": 60, "beat": 15.5, "duration": 0.5, "velocity": 90}, {"noteNumber": 65, "beat": 16, "duration": 0.5, "velocity": 90}, {"noteNumber": 65, "beat": 17.5, "duration": 0.5, "velocity": 90}, {"noteNumber": 65, "beat": 18, "duration": 0.5, "velocity": 90}, {"noteNumber": 69, "beat": 19, "duration": 0.5, "velocity": 90}, {"noteNumber": 69, "beat": 20, "duration": 0.5, "velocity": 90}, {"noteNumber": 67, "beat": 20.5, "duration": 0.5, "velocity": 90}, {"noteNumber": 67, "beat": 21, "duration": 0.5, "velocity": 90}, {"noteNumber": 65, "beat": 21.5, "duration": 0.5, "velocity": 90}, {"noteNumber": 67, "beat": 22, "duration": 0.5, "velocity": 90}, {"noteNumber": 69, "beat": 23, "duration": 0.5, "velocity": 90}, {"noteNumber": 70, "beat": 23.5, "duration": 0.5, "velocity": 90}, {"noteNumber": 72, "beat": 24, "duration": 0.5, "velocity": 90}, {"noteNumber": 72, "beat": 25.5, "duration": 0.5, "velocity": 90}, {"noteNumber": 73, "beat": 26, "duration": 0.5, "velocity": 90}, {"noteNumber": 69, "beat": 27, "duration": 0.5, "velocity": 90}, {"noteNumber": 67, "beat": 28, "duration": 0.5, "velocity": 90}, {"noteNumber": 65, "beat": 28.5, "duration": 0.5, "velocity": 90}, {"noteNumber": 65, "beat": 29, "duration": 0.5, "velocity": 90}, {"noteNumber": 64, "beat": 29.5, "duration": 0.5, "velocity": 90}, {"noteNumber": 65, "beat": 30, "duration": 0.5, "velocity": 90}, {"noteNumber": 62, "beat": 31, "duration": 0.5, "velocity": 90}, {"noteNumber": 60, "beat": 31.5, "duration": 0.5, "velocity": 90}, {"noteNumber": 62, "beat": 32, "duration": 0.5, "velocity": 90}, {"noteNumber": 62, "beat": 33, "duration": 0.5, "velocity": 90}, {"noteNumber": 65, "beat": 33.5, "duration": 0.5, "velocity": 90}, {"noteNumber": 64, "beat": 34, "duration": 0.5, "velocity": 90}, {"noteNumber": 64, "beat": 34.5, "duration": 0.5, "velocity": 90}, {"noteNumber": 67, "beat": 35, "duration": 0.5, "velocity": 90}, {"noteNumber": 69, "beat": 35.5, "duration": 0.5, "velocity": 90}, {"noteNumber": 65, "beat": 36, "duration": 4, "velocity": 90}]}, {"instrument": "SopranoSax", "volume": 90, "notes": []}, {"instrument": "FingerBass", "volume": 90, "notes": [{"noteNumber": 58, "beat": 0, "duration": 2, "velocity": 90}, {"noteNumber": 58, "beat": 2, "duration": 2, "velocity": 90}, {"noteNumber": 60, "beat": 4, "duration": 2, "velocity": 90}, {"noteNumber": 53, "beat": 6, "duration": 2, "velocity": 90}, {"noteNumber": 53, "beat": 8, "duration": 2, "velocity": 90}, {"noteNumber": 53, "beat": 10, "duration": 2, "velocity": 90}, {"noteNumber": 58, "beat": 12, "duration": 2, "velocity": 90}, {"noteNumber": 53, "beat": 14, "duration": 2, "velocity": 90}, {"noteNumber": 53, "beat": 16, "duration": 2, "velocity": 90}, {"noteNumber": 53, "beat": 18, "duration": 2, "velocity": 90}, {"noteNumber": 58, "beat": 20, "duration": 2, "velocity": 90}, {"noteNumber": 60, "beat": 22, "duration": 2, "velocity": 90}, {"noteNumber": 53, "beat": 24, "duration": 2, "velocity": 90}]}, {"instrument": "Strings", "volume": 90, "notes": []}, {"instrument": "Percussion", "volume": 90, "notes": []}, {"instrument": "Piano", "volume": 90, "notes": []}, {"instrument": "Piano", "volume": 90, "notes": []}, {"instrument": "Piano", "volume": 90, "notes": []}]}