{"name":"tiruno","tempo":180,"songID":14,"userID":542731,"isOnRelease":true,"createdDate":1616162851006,"releasedDate":949330800000,"lastUpdatedDate":1616606826443,"tracks":[{"instrument":"SopranoSax","volume":90,"notes":[{"noteNumber":60,"beat":0,"duration":0.5,"velocity":90},{"noteNumber":58,"beat":0.5,"duration":0.5,"velocity":90},{"noteNumber":60,"beat":1,"duration":0.5,"velocity":90},{"noteNumber":63,"beat":1.5,"duration":2,"velocity":90},{"noteNumber":60,"beat":4,"duration":0.5,"velocity":90},{"noteNumber":58,"beat":4.5,"duration":0.5,"velocity":90},{"noteNumber":60,"beat":5,"duration":0.5,"velocity":90},{"noteNumber":63,"beat":5.5,"duration":1,"velocity":90},{"noteNumber":65,"beat":6.5,"duration":0.5,"velocity":90},{"noteNumber":60,"beat":7,"duration":0.5,"velocity":90},{"noteNumber":58,"beat":7.5,"duration":0.5,"velocity":90},{"noteNumber":60,"beat":8,"duration":0.5,"velocity":90},{"noteNumber":58,"beat":8.5,"duration":0.5,"velocity":90},{"noteNumber":60,"beat":9,"duration":0.5,"velocity":90},{"noteNumber":63,"beat":9.5,"duration":2,"velocity":90},{"noteNumber":60,"beat":12,"duration":0.5,"velocity":90},{"noteNumber":58,"beat":12.5,"duration":0.5,"velocity":90},{"noteNumber":60,"beat":13,"duration":0.5,"velocity":90},{"noteNumber":67,"beat":13.5,"duration":0.5,"velocity":90},{"noteNumber":67,"beat":14.5,"duration":0.5,"velocity":90},{"noteNumber":65,"beat":15,"duration":1,"velocity":90},{"noteNumber":60,"beat":16,"duration":0.5,"velocity":90},{"noteNumber":58,"beat":16.5,"duration":0.5,"velocity":90},{"noteNumber":60,"beat":17,"duration":0.5,"velocity":90},{"noteNumber":63,"beat":17.5,"duration":2,"velocity":90},{"noteNumber":60,"beat":20,"duration":0.5,"velocity":90},{"noteNumber":58,"beat":20.5,"duration":0.5,"velocity":90},{"noteNumber":60,"beat":21,"duration":0.5,"velocity":90},{"noteNumber":63,"beat":21.5,"duration":1,"velocity":90},{"noteNumber":65,"beat":22.5,"duration":0.5,"velocity":90},{"noteNumber":60,"beat":23,"duration":0.5,"velocity":90},{"noteNumber":58,"beat":23.5,"duration":0.5,"velocity":90},{"noteNumber":60,"beat":24,"duration":0.5,"velocity":90},{"noteNumber":58,"beat":24.5,"duration":0.5,"velocity":90},{"noteNumber":60,"beat":25,"duration":0.5,"velocity":90},{"noteNumber":63,"beat":25.5,"duration":2,"velocity":90},{"noteNumber":60,"beat":28,"duration":0.5,"velocity":90},{"noteNumber":58,"beat":28.5,"duration":0.5,"velocity":90},{"noteNumber":60,"beat":29,"duration":0.5,"velocity":90},{"noteNumber":67,"beat":29.5,"duration":0.5,"velocity":90},{"noteNumber":67,"beat":30.5,"duration":0.5,"velocity":90},{"noteNumber":65,"beat":31,"duration":1,"velocity":90}]},{"instrument":"SopranoSax","volume":90,"notes":[]},{"instrument":"FingerBass","volume":90,"notes":[{"noteNumber":48,"beat":0,"duration":0.5,"velocity":90},{"noteNumber":60,"beat":0.5,"duration":0.5,"velocity":90},{"noteNumber":48,"beat":1,"duration":0.5,"velocity":90},{"noteNumber":60,"beat":1.5,"duration":0.5,"velocity":90},{"noteNumber":48,"beat":2,"duration":0.5,"velocity":90},{"noteNumber":60,"beat":2.5,"duration":0.5,"velocity":90},{"noteNumber":48,"beat":3,"duration":0.5,"velocity":90},{"noteNumber":60,"beat":3.5,"duration":0.5,"velocity":90},{"noteNumber":48,"beat":4,"duration":0.5,"velocity":90},{"noteNumber":60,"beat":4.5,"duration":0.5,"velocity":90},{"noteNumber":48,"beat":5,"duration":0.5,"velocity":90},{"noteNumber":60,"beat":5.5,"duration":0.5,"velocity":90},{"noteNumber":48,"beat":6,"duration":0.5,"velocity":90},{"noteNumber":60,"beat":6.5,"duration":0.5,"velocity":90},{"noteNumber":48,"beat":7,"duration":0.5,"velocity":90},{"noteNumber":60,"beat":7.5,"duration":0.5,"velocity":90},{"noteNumber":48,"beat":8,"duration":0.5,"velocity":90},{"noteNumber":60,"beat":8.5,"duration":0.5,"velocity":90},{"noteNumber":48,"beat":9,"duration":0.5,"velocity":90},{"noteNumber":60,"beat":9.5,"duration":0.5,"velocity":90},{"noteNumber":48,"beat":10,"duration":0.5,"velocity":90},{"noteNumber":60,"beat":10.5,"duration":0.5,"velocity":90},{"noteNumber":48,"beat":11,"duration":0.5,"velocity":90},{"noteNumber":60,"beat":11.5,"duration":0.5,"velocity":90},{"noteNumber":48,"beat":12,"duration":0.5,"velocity":90},{"noteNumber":60,"beat":12.5,"duration":0.5,"velocity":90},{"noteNumber":48,"beat":13,"duration":0.5,"velocity":90},{"noteNumber":60,"beat":13.5,"duration":0.5,"velocity":90},{"noteNumber":48,"beat":14,"duration":0.5,"velocity":90},{"noteNumber":60,"beat":14.5,"duration":0.5,"velocity":90},{"noteNumber":46,"beat":15,"duration":0.5,"velocity":90},{"noteNumber":58,"beat":15.5,"duration":0.5,"velocity":90},{"noteNumber":44,"beat":16,"duration":0.5,"velocity":90},{"noteNumber":56,"beat":16.5,"duration":0.5,"velocity":90},{"noteNumber":44,"beat":17,"duration":0.5,"velocity":90},{"noteNumber":56,"beat":17.5,"duration":0.5,"velocity":90},{"noteNumber":44,"beat":18,"duration":0.5,"velocity":90},{"noteNumber":56,"beat":18.5,"duration":0.5,"velocity":90},{"noteNumber":44,"beat":19,"duration":0.5,"velocity":90},{"noteNumber":56,"beat":19.5,"duration":0.5,"velocity":90},{"noteNumber":44,"beat":20,"duration":0.5,"velocity":90},{"noteNumber":56,"beat":20.5,"duration":0.5,"velocity":90},{"noteNumber":44,"beat":21,"duration":0.5,"velocity":90},{"noteNumber":56,"beat":21.5,"duration":0.5,"velocity":90},{"noteNumber":44,"beat":22,"duration":0.5,"velocity":90},{"noteNumber":56,"beat":22.5,"duration":0.5,"velocity":90},{"noteNumber":44,"beat":23,"duration":0.5,"velocity":90},{"noteNumber":56,"beat":23.5,"duration":0.5,"velocity":90},{"noteNumber":44,"beat":24,"duration":0.5,"velocity":90},{"noteNumber":56,"beat":24.5,"duration":0.5,"velocity":90},{"noteNumber":44,"beat":25,"duration":0.5,"velocity":90},{"noteNumber":56,"beat":25.5,"duration":0.5,"velocity":90},{"noteNumber":44,"beat":26,"duration":0.5,"velocity":90},{"noteNumber":56,"beat":26.5,"duration":0.5,"velocity":90},{"noteNumber":44,"beat":27,"duration":0.5,"velocity":90},{"noteNumber":56,"beat":27.5,"duration":0.5,"velocity":90},{"noteNumber":44,"beat":28,"duration":0.5,"velocity":90},{"noteNumber":56,"beat":28.5,"duration":0.5,"velocity":90},{"noteNumber":44,"beat":29,"duration":0.5,"velocity":90},{"noteNumber":56,"beat":29.5,"duration":0.5,"velocity":90},{"noteNumber":44,"beat":30,"duration":0.5,"velocity":90},{"noteNumber":56,"beat":30.5,"duration":0.5,"velocity":90},{"noteNumber":46,"beat":31,"duration":0.5,"velocity":90},{"noteNumber":58,"beat":31.5,"duration":0.5,"velocity":90}]},{"instrument":"Strings","volume":90,"notes":[]},{"instrument":"Percussion","volume":90,"notes":[]},{"instrument":"Piano","volume":90,"notes":[]},{"instrument":"Piano","volume":90,"notes":[]},{"instrument":"Piano","volume":90,"notes":[]}]}