{"name":"test6","tempo":120,"songID":15,"userID":542731,"isOnRelease":true,"createdDate":1616606859155,"releasedDate":946652400000,"lastUpdatedDate":1616607177563,"tracks":[{"instrument":"Piano","volume":90,"notes":[{"noteNumber":60,"beat":0,"duration":1,"velocity":90},{"noteNumber":64,"beat":1,"duration":1,"velocity":90},{"noteNumber":67,"beat":2,"duration":1,"velocity":90},{"noteNumber":60,"beat":3,"duration":1,"velocity":90},{"noteNumber":64,"beat":4,"duration":1,"velocity":90},{"noteNumber":67,"beat":5,"duration":1,"velocity":90},{"noteNumber":60,"beat":6,"duration":1,"velocity":90},{"noteNumber":64,"beat":7,"duration":1,"velocity":90},{"noteNumber":67,"beat":8,"duration":1,"velocity":90},{"noteNumber":60,"beat":9,"duration":1,"velocity":90},{"noteNumber":65,"beat":10,"duration":1,"velocity":90},{"noteNumber":69,"beat":11,"duration":1,"velocity":90},{"noteNumber":60,"beat":12,"duration":1,"velocity":90},{"noteNumber":64,"beat":13,"duration":1,"velocity":90},{"noteNumber":67,"beat":14,"duration":1,"velocity":90},{"noteNumber":60,"beat":15,"duration":1,"velocity":90},{"noteNumber":64,"beat":16,"duration":1,"velocity":90},{"noteNumber":67,"beat":17,"duration":1,"velocity":90},{"noteNumber":55,"beat":18,"duration":1,"velocity":90},{"noteNumber":59,"beat":19,"duration":1,"velocity":90},{"noteNumber":62,"beat":20,"duration":1,"velocity":90},{"noteNumber":55,"beat":21,"duration":1,"velocity":90},{"noteNumber":59,"beat":22,"duration":1,"velocity":90},{"noteNumber":62,"beat":23,"duration":1,"velocity":90}]},{"instrument":"SopranoSax","volume":90,"notes":[{"noteNumber":64,"beat":0,"duration":2,"velocity":90},{"noteNumber":65,"beat":3,"duration":2,"velocity":90},{"noteNumber":67,"beat":6,"duration":2,"velocity":90},{"noteNumber":72,"beat":9,"duration":2,"velocity":90},{"noteNumber":72,"beat":12,"duration":2,"velocity":90},{"noteNumber":69,"beat":14,"duration":1,"velocity":90},{"noteNumber":67,"beat":15,"duration":1,"velocity":90},{"noteNumber":64,"beat":16,"duration":1,"velocity":90},{"noteNumber":60,"beat":17,"duration":1,"velocity":90},{"noteNumber":62,"beat":18,"duration":2,"velocity":90}]},{"instrument":"FingerBass","volume":90,"notes":[]},{"instrument":"Strings","volume":90,"notes":[]},{"instrument":"Percussion","volume":90,"notes":[]},{"instrument":"Piano","volume":90,"notes":[]},{"instrument":"Piano","volume":90,"notes":[]},{"instrument":"Piano","volume":90,"notes":[]}]}