{"name":"test7","tempo":120,"songID":16,"userID":542731,"isOnRelease":true,"createdDate":1616607193308,"releasedDate":946652400000,"lastUpdatedDate":1616607314986,"tracks":[{"instrument":"FingerBass","volume":90,"notes":[{"noteNumber":60,"beat":0,"duration":1,"velocity":90},{"noteNumber":60,"beat":1,"duration":1,"velocity":90},{"noteNumber":60,"beat":2,"duration":1,"velocity":90},{"noteNumber":60,"beat":3,"duration":1,"velocity":90},{"noteNumber":55,"beat":4,"duration":1,"velocity":90},{"noteNumber":55,"beat":5,"duration":1,"velocity":90},{"noteNumber":55,"beat":6,"duration":1,"velocity":90},{"noteNumber":55,"beat":7,"duration":1,"velocity":90},{"noteNumber":60,"beat":8,"duration":1,"velocity":90},{"noteNumber":60,"beat":9,"duration":1,"velocity":90},{"noteNumber":60,"beat":10,"duration":1,"velocity":90},{"noteNumber":60,"beat":11,"duration":1,"velocity":90},{"noteNumber":58,"beat":12,"duration":1,"velocity":90},{"noteNumber":58,"beat":13,"duration":1,"velocity":90},{"noteNumber":58,"beat":14,"duration":1,"velocity":90},{"noteNumber":58,"beat":15,"duration":1,"velocity":90}]},{"instrument":"Piano","volume":90,"notes":[{"noteNumber":72,"beat":0,"duration":0.5,"velocity":90},{"noteNumber":72,"beat":1,"duration":0.5,"velocity":90},{"noteNumber":67,"beat":2,"duration":0.5,"velocity":90},{"noteNumber":76,"beat":3,"duration":0.5,"velocity":90},{"noteNumber":74,"beat":3.5,"duration":2,"velocity":90},{"noteNumber":76,"beat":7,"duration":0.5,"velocity":90},{"noteNumber":74,"beat":7.5,"duration":0.5,"velocity":90},{"noteNumber":72,"beat":8,"duration":0.5,"velocity":90},{"noteNumber":72,"beat":9,"duration":0.5,"velocity":90},{"noteNumber":76,"beat":10,"duration":0.5,"velocity":90},{"noteNumber":79,"beat":10.5,"duration":0.5,"velocity":90},{"noteNumber":79,"beat":11.5,"duration":2,"velocity":90},{"noteNumber":74,"beat":14,"duration":0.5,"velocity":90},{"noteNumber":76,"beat":14.5,"duration":0.5,"velocity":90},{"noteNumber":74,"beat":15,"duration":0.5,"velocity":90},{"noteNumber":72,"beat":15.5,"duration":0.5,"velocity":90}]},{"instrument":"FingerBass","volume":90,"notes":[]},{"instrument":"Strings","volume":90,"notes":[]},{"instrument":"Percussion","volume":90,"notes":[]},{"instrument":"Piano","volume":90,"notes":[]},{"instrument":"Piano","volume":90,"notes":[]},{"instrument":"Piano","volume":90,"notes":[]}]}