{"name":"New Song","tempo":120,"songID":17,"userID":542731,"isOnRelease":true,"createdDate":1616607535605,"releasedDate":946652400000,"lastUpdatedDate":1616607640220,"tracks":[{"instrument":"FingerBass","volume":90,"notes":[{"noteNumber":48,"beat":0,"duration":1,"velocity":90},{"noteNumber":48,"beat":1,"duration":1,"velocity":90},{"noteNumber":48,"beat":2,"duration":1,"velocity":90},{"noteNumber":48,"beat":3,"duration":1,"velocity":90},{"noteNumber":48,"beat":4,"duration":1,"velocity":90},{"noteNumber":48,"beat":5,"duration":1,"velocity":90},{"noteNumber":52,"beat":6,"duration":1,"velocity":90},{"noteNumber":52,"beat":7,"duration":1,"velocity":90},{"noteNumber":53,"beat":8,"duration":1,"velocity":90},{"noteNumber":53,"beat":9,"duration":1,"velocity":90},{"noteNumber":48,"beat":10,"duration":1,"velocity":90},{"noteNumber":48,"beat":11,"duration":1,"velocity":90},{"noteNumber":50,"beat":12,"duration":1,"velocity":90},{"noteNumber":50,"beat":13,"duration":1,"velocity":90},{"noteNumber":55,"beat":14,"duration":1,"velocity":90},{"noteNumber":55,"beat":15,"duration":1,"velocity":90}]},{"instrument":"SopranoSax","volume":90,"notes":[{"noteNumber":60,"beat":0.5,"duration":0.5,"velocity":90},{"noteNumber":64,"beat":1,"duration":0.5,"velocity":90},{"noteNumber":60,"beat":1.5,"duration":0.5,"velocity":90},{"noteNumber":64,"beat":2,"duration":1,"velocity":90},{"noteNumber":60,"beat":3,"duration":1,"velocity":90},{"noteNumber":64,"beat":4,"duration":0.5,"velocity":90},{"noteNumber":64,"beat":5,"duration":0.5,"velocity":90},{"noteNumber":60,"beat":5.5,"duration":0.5,"velocity":90},{"noteNumber":67,"beat":6,"duration":2,"velocity":90},{"noteNumber":60,"beat":8.5,"duration":0.5,"velocity":90},{"noteNumber":65,"beat":9,"duration":0.5,"velocity":90},{"noteNumber":60,"beat":9.5,"duration":0.5,"velocity":90},{"noteNumber":69,"beat":10,"duration":1,"velocity":90},{"noteNumber":67,"beat":11,"duration":0.5,"velocity":90},{"noteNumber":65,"beat":11.5,"duration":0.5,"velocity":90},{"noteNumber":64,"beat":12,"duration":1,"velocity":90},{"noteNumber":62,"beat":13,"duration":0.5,"velocity":90},{"noteNumber":60,"beat":13.5,"duration":0.5,"velocity":90},{"noteNumber":62,"beat":14,"duration":2,"velocity":90}]},{"instrument":"FingerBass","volume":90,"notes":[]},{"instrument":"Strings","volume":90,"notes":[]},{"instrument":"Percussion","volume":90,"notes":[]},{"instrument":"Piano","volume":90,"notes":[]},{"instrument":"Piano","volume":90,"notes":[]},{"instrument":"Piano","volume":90,"notes":[]}]}