{"name":"DEBUG","tempo":120,"songID":20,"userID":542732,"isOnRelease":false,"createdDate":1617812544109,"releasedDate":946652400000,"lastUpdatedDate":1617812606962,"tracks":[{"instrument":"Piano","volume":90,"notes":[]},{"instrument":"SopranoSax","volume":90,"notes":[]},{"instrument":"FingerBass","volume":90,"notes":[{"noteNumber":37,"beat":0,"duration":1,"velocity":90},{"noteNumber":38,"beat":1,"duration":1,"velocity":90},{"noteNumber":39,"beat":2,"duration":1,"velocity":90},{"noteNumber":40,"beat":3,"duration":1,"velocity":90},{"noteNumber":41,"beat":4,"duration":1,"velocity":90},{"noteNumber":42,"beat":5,"duration":1,"velocity":90},{"noteNumber":43,"beat":6,"duration":1,"velocity":90},{"noteNumber":44,"beat":7,"duration":1,"velocity":90},{"noteNumber":45,"beat":8,"duration":1,"velocity":90},{"noteNumber":46,"beat":9,"duration":1,"velocity":90},{"noteNumber":47,"beat":10,"duration":1,"velocity":90},{"noteNumber":48,"beat":11,"duration":1,"velocity":90},{"noteNumber":49,"beat":12,"duration":1,"velocity":90},{"noteNumber":50,"beat":13,"duration":1,"velocity":90},{"noteNumber":51,"beat":14,"duration":1,"velocity":90},{"noteNumber":52,"beat":15,"duration":1,"velocity":90},{"noteNumber":53,"beat":16,"duration":1,"velocity":90},{"noteNumber":54,"beat":17,"duration":1,"velocity":90},{"noteNumber":55,"beat":18,"duration":1,"velocity":90},{"noteNumber":56,"beat":19,"duration":1,"velocity":90},{"noteNumber":57,"beat":20,"duration":1,"velocity":90},{"noteNumber":58,"beat":21,"duration":1,"velocity":90},{"noteNumber":59,"beat":22,"duration":1,"velocity":90},{"noteNumber":60,"beat":23,"duration":1,"velocity":90},{"noteNumber":61,"beat":24,"duration":1,"velocity":90},{"noteNumber":62,"beat":25,"duration":1,"velocity":90},{"noteNumber":63,"beat":26,"duration":1,"velocity":90},{"noteNumber":64,"beat":27,"duration":1,"velocity":90},{"noteNumber":65,"beat":28,"duration":1,"velocity":90},{"noteNumber":66,"beat":29,"duration":1,"velocity":90},{"noteNumber":67,"beat":30,"duration":1,"velocity":90},{"noteNumber":68,"beat":31,"duration":1,"velocity":90},{"noteNumber":69,"beat":32,"duration":1,"velocity":90},{"noteNumber":70,"beat":33,"duration":1,"velocity":90},{"noteNumber":71,"beat":34,"duration":1,"velocity":90},{"noteNumber":72,"beat":35,"duration":1,"velocity":90},{"noteNumber":73,"beat":36,"duration":1,"velocity":90},{"noteNumber":74,"beat":37,"duration":1,"velocity":90},{"noteNumber":75,"beat":38,"duration":1,"velocity":90},{"noteNumber":76,"beat":39,"duration":1,"velocity":90},{"noteNumber":77,"beat":40,"duration":1,"velocity":90},{"noteNumber":78,"beat":41,"duration":1,"velocity":90},{"noteNumber":79,"beat":42,"duration":1,"velocity":90},{"noteNumber":80,"beat":43,"duration":1,"velocity":90},{"noteNumber":81,"beat":44,"duration":1,"velocity":90},{"noteNumber":82,"beat":45,"duration":1,"velocity":90},{"noteNumber":83,"beat":46,"duration":1,"velocity":90},{"noteNumber":84,"beat":47,"duration":1,"velocity":90},{"noteNumber":85,"beat":48,"duration":1,"velocity":90},{"noteNumber":86,"beat":49,"duration":1,"velocity":90},{"noteNumber":87,"beat":50,"duration":1,"velocity":90},{"noteNumber":88,"beat":51,"duration":1,"velocity":90},{"noteNumber":89,"beat":52,"duration":1,"velocity":90},{"noteNumber":90,"beat":53,"duration":1,"velocity":90},{"noteNumber":91,"beat":54,"duration":1,"velocity":90},{"noteNumber":92,"beat":55,"duration":1,"velocity":90},{"noteNumber":93,"beat":56,"duration":1,"velocity":90},{"noteNumber":94,"beat":57,"duration":1,"velocity":90},{"noteNumber":95,"beat":58,"duration":1,"velocity":90},{"noteNumber":96,"beat":59,"duration":1,"velocity":90}]},{"instrument":"Strings","volume":90,"notes":[]},{"instrument":"Percussion","volume":90,"notes":[]},{"instrument":"Piano","volume":90,"notes":[]},{"instrument":"Piano","volume":90,"notes":[]},{"instrument":"Piano","volume":90,"notes":[]}]}