{"name": "New Song", "tempo": 120, "songID": 21, "userID": 26, "isOnRelease": true, "createdDate": 1638325731786, "releasedDate": 1638325802299, "lastUpdatedDate": 1638325802300, "tracks": [{"instrument": "Piano", "volume": 90, "notes": [{"noteNumber": 80, "beat": 1.25, "duration": 1, "velocity": 90}, {"noteNumber": 87, "beat": 1.25, "duration": 1, "velocity": 90}, {"noteNumber": 81, "beat": 2.25, "duration": 1, "velocity": 90}, {"noteNumber": 83, "beat": 2.75, "duration": 1, "velocity": 90}, {"noteNumber": 86, "beat": 3, "duration": 1, "velocity": 90}, {"noteNumber": 83, "beat": 4, "duration": 1, "velocity": 90}, {"noteNumber": 81, "beat": 4.25, "duration": 1, "velocity": 90}, {"noteNumber": 86, "beat": 5, "duration": 1, "velocity": 90}, {"noteNumber": 89, "beat": 5.5, "duration": 1, "velocity": 90}, {"noteNumber": 78, "beat": 5.75, "duration": 1, "velocity": 90}, {"noteNumber": 84, "beat": 6.25, "duration": 1, "velocity": 90}, {"noteNumber": 82, "beat": 7, "duration": 1, "velocity": 90}, {"noteNumber": 83, "beat": 7.25, "duration": 1, "velocity": 90}, {"noteNumber": 80, "beat": 7.25, "duration": 1, "velocity": 90}, {"noteNumber": 91, "beat": 7.75, "duration": 1, "velocity": 90}, {"noteNumber": 84, "beat": 8.5, "duration": 1, "velocity": 90}, {"noteNumber": 88, "beat": 9.25, "duration": 1, "velocity": 90}, {"noteNumber": 81, "beat": 10.75, "duration": 1, "velocity": 90}, {"noteNumber": 92, "beat": 12, "duration": 1, "velocity": 90}, {"noteNumber": 82, "beat": 13, "duration": 1, "velocity": 90}, {"noteNumber": 87, "beat": 14.75, "duration": 1, "velocity": 90}, {"noteNumber": 78, "beat": 15.5, "duration": 1, "velocity": 90}, {"noteNumber": 84, "beat": 17.5, "duration": 1, "velocity": 90}]}, {"instrument": "SopranoSax", "volume": 90, "notes": []}, {"instrument": "FingerBass", "volume": 90, "notes": []}, {"instrument": "Strings", "volume": 90, "notes": []}, {"instrument": "Percussion", "volume": 90, "notes": []}, {"instrument": "Piano", "volume": 90, "notes": []}, {"instrument": "Piano", "volume": 90, "notes": []}, {"instrument": "Piano", "volume": 90, "notes": []}]}