{"name": "menuet", "tempo": 120, "songID": 23, "userID": 26, "isOnRelease": true, "createdDate": 1638326418517, "releasedDate": 1638326793262, "lastUpdatedDate": 1638362460350, "tracks": [{"instrument": "Piano", "volume": 90, "notes": [{"noteNumber": 48, "beat": 0, "duration": 2, "velocity": 90}, {"noteNumber": 67, "beat": 0, "duration": 1, "velocity": 90}, {"noteNumber": 60, "beat": 1, "duration": 0.5, "velocity": 90}, {"noteNumber": 62, "beat": 1.5, "duration": 0.5, "velocity": 90}, {"noteNumber": 50, "beat": 2, "duration": 1, "velocity": 90}, {"noteNumber": 64, "beat": 2, "duration": 0.5, "velocity": 90}, {"noteNumber": 65, "beat": 2.5, "duration": 0.5, "velocity": 90}, {"noteNumber": 52, "beat": 3, "duration": 3, "velocity": 90}, {"noteNumber": 67, "beat": 3, "duration": 1, "velocity": 90}, {"noteNumber": 60, "beat": 4, "duration": 0.5, "velocity": 90}, {"noteNumber": 60, "beat": 5, "duration": 0.5, "velocity": 90}, {"noteNumber": 53, "beat": 6, "duration": 3, "velocity": 90}, {"noteNumber": 69, "beat": 6, "duration": 0.5, "velocity": 90}, {"noteNumber": 65, "beat": 6.5, "duration": 0.25, "velocity": 90}, {"noteNumber": 64, "beat": 6.75, "duration": 0.25, "velocity": 90}, {"noteNumber": 65, "beat": 7, "duration": 0.5, "velocity": 90}, {"noteNumber": 67, "beat": 7.5, "duration": 0.5, "velocity": 90}, {"noteNumber": 69, "beat": 8, "duration": 0.5, "velocity": 90}, {"noteNumber": 71, "beat": 8.5, "duration": 0.5, "velocity": 90}, {"noteNumber": 52, "beat": 9, "duration": 3, "velocity": 90}, {"noteNumber": 72, "beat": 9, "duration": 1, "velocity": 90}, {"noteNumber": 60, "beat": 10, "duration": 0.5, "velocity": 90}, {"noteNumber": 60, "beat": 11, "duration": 0.5, "velocity": 90}, {"noteNumber": 50, "beat": 12, "duration": 3, "velocity": 90}, {"noteNumber": 65, "beat": 12, "duration": 1, "velocity": 90}, {"noteNumber": 67, "beat": 13, "duration": 0.5, "velocity": 90}, {"noteNumber": 65, "beat": 13.5, "duration": 0.5, "velocity": 90}, {"noteNumber": 64, "beat": 14, "duration": 0.5, "velocity": 90}, {"noteNumber": 62, "beat": 14.5, "duration": 0.5, "velocity": 90}, {"noteNumber": 48, "beat": 15, "duration": 3, "velocity": 90}, {"noteNumber": 64, "beat": 15, "duration": 1, "velocity": 90}, {"noteNumber": 65, "beat": 16, "duration": 0.5, "velocity": 90}, {"noteNumber": 64, "beat": 16.5, "duration": 0.5, "velocity": 90}, {"noteNumber": 62, "beat": 17, "duration": 0.5, "velocity": 90}, {"noteNumber": 60, "beat": 17.5, "duration": 0.5, "velocity": 90}, {"noteNumber": 55, "beat": 18, "duration": 1, "velocity": 90}, {"noteNumber": 59, "beat": 18, "duration": 1, "velocity": 90}, {"noteNumber": 52, "beat": 19, "duration": 1, "velocity": 90}, {"noteNumber": 60, "beat": 19, "duration": 0.5, "velocity": 90}, {"noteNumber": 62, "beat": 19.5, "duration": 0.5, "velocity": 90}, {"noteNumber": 48, "beat": 20, "duration": 1, "velocity": 90}, {"noteNumber": 64, "beat": 20, "duration": 0.5, "velocity": 90}, {"noteNumber": 60, "beat": 20.5, "duration": 0.5, "velocity": 90}, {"noteNumber": 55, "beat": 21, "duration": 1, "velocity": 90}, {"noteNumber": 64, "beat": 21, "duration": 1, "velocity": 90}, {"noteNumber": 43, "beat": 22, "duration": 0.5, "velocity": 90}, {"noteNumber": 62, "beat": 22, "duration": 2, "velocity": 90}, {"noteNumber": 53, "beat": 22.5, "duration": 0.5, "velocity": 90}, {"noteNumber": 52, "beat": 23, "duration": 0.5, "velocity": 90}, {"noteNumber": 50, "beat": 23.5, "duration": 0.5, "velocity": 90}, {"noteNumber": 52, "beat": 24, "duration": 2, "velocity": 90}, {"noteNumber": 67, "beat": 24, "duration": 1, "velocity": 90}, {"noteNumber": 60, "beat": 25, "duration": 0.5, "velocity": 90}, {"noteNumber": 62, "beat": 25.5, "duration": 0.5, "velocity": 90}, {"noteNumber": 50, "beat": 26, "duration": 1, "velocity": 90}, {"noteNumber": 64, "beat": 26, "duration": 0.5, "velocity": 90}, {"noteNumber": 65, "beat": 26.5, "duration": 0.5, "velocity": 90}, {"noteNumber": 48, "beat": 27, "duration": 1, "velocity": 90}, {"noteNumber": 67, "beat": 27, "duration": 1, "velocity": 90}, {"noteNumber": 52, "beat": 28, "duration": 0.5, "velocity": 90}, {"noteNumber": 60, "beat": 28, "duration": 0.5, "velocity": 90}, {"noteNumber": 48, "beat": 29, "duration": 1, "velocity": 90}, {"noteNumber": 60, "beat": 29, "duration": 0.5, "velocity": 90}, {"noteNumber": 53, "beat": 30, "duration": 3, "velocity": 90}, {"noteNumber": 69, "beat": 30, "duration": 0.5, "velocity": 90}, {"noteNumber": 65, "beat": 30.5, "duration": 0.25, "velocity": 90}, {"noteNumber": 64, "beat": 30.75, "duration": 0.25, "velocity": 90}, {"noteNumber": 65, "beat": 31, "duration": 0.5, "velocity": 90}, {"noteNumber": 67, "beat": 31.5, "duration": 0.5, "velocity": 90}, {"noteNumber": 69, "beat": 32, "duration": 0.5, "velocity": 90}, {"noteNumber": 71, "beat": 32.5, "duration": 0.5, "velocity": 90}, {"noteNumber": 52, "beat": 33, "duration": 1, "velocity": 90}, {"noteNumber": 72, "beat": 33, "duration": 1, "velocity": 90}, {"noteNumber": 53, "beat": 34, "duration": 0.5, "velocity": 90}, {"noteNumber": 60, "beat": 34, "duration": 0.5, "velocity": 90}, {"noteNumber": 52, "beat": 34.5, "duration": 0.5, "velocity": 90}, {"noteNumber": 50, "beat": 35, "duration": 0.5, "velocity": 90}, {"noteNumber": 60, "beat": 35, "duration": 0.5, "velocity": 90}, {"noteNumber": 48, "beat": 35.5, "duration": 0.5, "velocity": 90}, {"noteNumber": 50, "beat": 36, "duration": 2, "velocity": 90}, {"noteNumber": 65, "beat": 36, "duration": 1, "velocity": 90}, {"noteNumber": 67, "beat": 37, "duration": 0.5, "velocity": 90}, {"noteNumber": 65, "beat": 37.5, "duration": 0.5, "velocity": 90}, {"noteNumber": 47, "beat": 38, "duration": 1, "velocity": 90}, {"noteNumber": 64, "beat": 38, "duration": 0.5, "velocity": 90}, {"noteNumber": 62, "beat": 38.5, "duration": 0.5, "velocity": 90}, {"noteNumber": 48, "beat": 39, "duration": 2, "velocity": 90}, {"noteNumber": 64, "beat": 39, "duration": 1, "velocity": 90}, {"noteNumber": 65, "beat": 40, "duration": 0.5, "velocity": 90}, {"noteNumber": 64, "beat": 40.5, "duration": 0.5, "velocity": 90}, {"noteNumber": 52, "beat": 41, "duration": 1, "velocity": 90}, {"noteNumber": 62, "beat": 41, "duration": 0.5, "velocity": 90}, {"noteNumber": 60, "beat": 41.5, "duration": 0.5, "velocity": 90}, {"noteNumber": 53, "beat": 42, "duration": 1, "velocity": 90}, {"noteNumber": 62, "beat": 42, "duration": 1, "velocity": 90}, {"noteNumber": 55, "beat": 43, "duration": 1, "velocity": 90}, {"noteNumber": 64, "beat": 43, "duration": 0.5, "velocity": 90}, {"noteNumber": 62, "beat": 43.5, "duration": 0.5, "velocity": 90}, {"noteNumber": 43, "beat": 44, "duration": 1, "velocity": 90}, {"noteNumber": 60, "beat": 44, "duration": 0.5, "velocity": 90}, {"noteNumber": 59, "beat": 44.5, "duration": 0.5, "velocity": 90}, {"noteNumber": 60, "beat": 45, "duration": 4, "velocity": 90}, {"noteNumber": 48, "beat": 45, "duration": 4, "velocity": 90}]}, {"instrument": "SopranoSax", "volume": 90, "notes": []}, {"instrument": "FingerBass", "volume": 90, "notes": []}, {"instrument": "Strings", "volume": 90, "notes": []}, {"instrument": "Percussion", "volume": 90, "notes": []}, {"instrument": "Piano", "volume": 90, "notes": []}, {"instrument": "Piano", "volume": 90, "notes": []}, {"instrument": "Piano", "volume": 90, "notes": []}]}