{"name": "Over the Sky", "tempo": 160, "songID": 24, "userID": 26, "isOnRelease": true, "createdDate": 1638370515399, "releasedDate": 1638371642236, "lastUpdatedDate": 1638371959095, "tracks": [{"instrument": "Piano", "volume": 90, "notes": []}, {"instrument": "SopranoSax", "volume": 90, "notes": []}, {"instrument": "FingerBass", "volume": 90, "notes": [{"noteNumber": 48, "beat": 0, "duration": 4, "velocity": 90}, {"noteNumber": 53, "beat": 4, "duration": 4, "velocity": 90}, {"noteNumber": 55, "beat": 8, "duration": 0.5, "velocity": 90}, {"noteNumber": 55, "beat": 8.5, "duration": 0.5, "velocity": 90}, {"noteNumber": 55, "beat": 9, "duration": 0.5, "velocity": 90}, {"noteNumber": 55, "beat": 9.5, "duration": 0.5, "velocity": 90}, {"noteNumber": 55, "beat": 10, "duration": 0.5, "velocity": 90}, {"noteNumber": 55, "beat": 10.5, "duration": 0.5, "velocity": 90}, {"noteNumber": 55, "beat": 11, "duration": 0.5, "velocity": 90}, {"noteNumber": 55, "beat": 11.5, "duration": 0.5, "velocity": 90}, {"noteNumber": 60, "beat": 12, "duration": 0.5, "velocity": 90}, {"noteNumber": 60, "beat": 12.5, "duration": 0.5, "velocity": 90}, {"noteNumber": 60, "beat": 13, "duration": 0.5, "velocity": 90}, {"noteNumber": 60, "beat": 13.5, "duration": 0.5, "velocity": 90}, {"noteNumber": 59, "beat": 14, "duration": 0.5, "velocity": 90}, {"noteNumber": 59, "beat": 14.5, "duration": 0.5, "velocity": 90}, {"noteNumber": 59, "beat": 15, "duration": 0.5, "velocity": 90}, {"noteNumber": 59, "beat": 15.5, "duration": 0.5, "velocity": 90}, {"noteNumber": 57, "beat": 16, "duration": 0.5, "velocity": 90}, {"noteNumber": 57, "beat": 16.5, "duration": 0.5, "velocity": 90}, {"noteNumber": 57, "beat": 17, "duration": 0.5, "velocity": 90}, {"noteNumber": 57, "beat": 17.5, "duration": 0.5, "velocity": 90}, {"noteNumber": 57, "beat": 18, "duration": 0.5, "velocity": 90}, {"noteNumber": 57, "beat": 18.5, "duration": 0.5, "velocity": 90}, {"noteNumber": 57, "beat": 19, "duration": 0.5, "velocity": 90}, {"noteNumber": 57, "beat": 19.5, "duration": 0.5, "velocity": 90}, {"noteNumber": 52, "beat": 20, "duration": 0.5, "velocity": 90}, {"noteNumber": 52, "beat": 20.5, "duration": 0.5, "velocity": 90}, {"noteNumber": 52, "beat": 21, "duration": 0.5, "velocity": 90}, {"noteNumber": 52, "beat": 21.5, "duration": 0.5, "velocity": 90}, {"noteNumber": 52, "beat": 22, "duration": 0.5, "velocity": 90}, {"noteNumber": 52, "beat": 22.5, "duration": 0.5, "velocity": 90}, {"noteNumber": 52, "beat": 23, "duration": 0.5, "velocity": 90}, {"noteNumber": 52, "beat": 23.5, "duration": 0.5, "velocity": 90}, {"noteNumber": 50, "beat": 24, "duration": 0.5, "velocity": 90}, {"noteNumber": 50, "beat": 24.5, "duration": 0.5, "velocity": 90}, {"noteNumber": 50, "beat": 25, "duration": 0.5, "velocity": 90}, {"noteNumber": 50, "beat": 25.5, "duration": 0.5, "velocity": 90}, {"noteNumber": 50, "beat": 26, "duration": 0.5, "velocity": 90}, {"noteNumber": 50, "beat": 26.5, "duration": 0.5, "velocity": 90}, {"noteNumber": 50, "beat": 27, "duration": 0.5, "velocity": 90}, {"noteNumber": 50, "beat": 27.5, "duration": 0.5, "velocity": 90}, {"noteNumber": 55, "beat": 28, "duration": 0.5, "velocity": 90}, {"noteNumber": 55, "beat": 28.5, "duration": 0.5, "velocity": 90}, {"noteNumber": 55, "beat": 29, "duration": 0.5, "velocity": 90}, {"noteNumber": 43, "beat": 29.5, "duration": 1, "velocity": 90}, {"noteNumber": 43, "beat": 30.5, "duration": 0.5, "velocity": 90}, {"noteNumber": 45, "beat": 31, "duration": 0.5, "velocity": 90}, {"noteNumber": 47, "beat": 31.5, "duration": 0.5, "velocity": 90}]}, {"instrument": "Strings", "volume": 90, "notes": []}, {"instrument": "Percussion", "volume": 90, "notes": [{"noteNumber": 53, "beat": 0, "duration": 4, "velocity": 90}, {"noteNumber": 88, "beat": 0, "duration": 4, "velocity": 90}, {"noteNumber": 53, "beat": 4, "duration": 1.5, "velocity": 90}, {"noteNumber": 88, "beat": 4, "duration": 1.5, "velocity": 90}, {"noteNumber": 53, "beat": 5.5, "duration": 1, "velocity": 90}, {"noteNumber": 88, "beat": 5.5, "duration": 2, "velocity": 90}, {"noteNumber": 53, "beat": 6.5, "duration": 1.5, "velocity": 90}, {"noteNumber": 64, "beat": 7, "duration": 2, "velocity": 90}, {"noteNumber": 53, "beat": 8, "duration": 2, "velocity": 90}, {"noteNumber": 88, "beat": 8, "duration": 4, "velocity": 90}, {"noteNumber": 80, "beat": 9, "duration": 1, "velocity": 90}, {"noteNumber": 64, "beat": 9, "duration": 2, "velocity": 90}, {"noteNumber": 80, "beat": 10, "duration": 1, "velocity": 90}, {"noteNumber": 53, "beat": 10, "duration": 2, "velocity": 90}, {"noteNumber": 80, "beat": 11, "duration": 1, "velocity": 90}, {"noteNumber": 64, "beat": 11, "duration": 2, "velocity": 90}, {"noteNumber": 53, "beat": 12, "duration": 2, "velocity": 90}, {"noteNumber": 80, "beat": 12, "duration": 1, "velocity": 90}, {"noteNumber": 64, "beat": 13, "duration": 2, "velocity": 90}, {"noteNumber": 80, "beat": 13, "duration": 1, "velocity": 90}, {"noteNumber": 53, "beat": 14, "duration": 2, "velocity": 90}, {"noteNumber": 80, "beat": 14, "duration": 1, "velocity": 90}, {"noteNumber": 64, "beat": 15, "duration": 2, "velocity": 90}, {"noteNumber": 80, "beat": 15, "duration": 1, "velocity": 90}, {"noteNumber": 53, "beat": 16, "duration": 2, "velocity": 90}, {"noteNumber": 80, "beat": 16, "duration": 1, "velocity": 90}, {"noteNumber": 64, "beat": 17, "duration": 2, "velocity": 90}, {"noteNumber": 80, "beat": 17, "duration": 1, "velocity": 90}, {"noteNumber": 53, "beat": 18, "duration": 2, "velocity": 90}, {"noteNumber": 80, "beat": 18, "duration": 1, "velocity": 90}, {"noteNumber": 64, "beat": 19, "duration": 2, "velocity": 90}, {"noteNumber": 80, "beat": 19, "duration": 1, "velocity": 90}, {"noteNumber": 53, "beat": 20, "duration": 2, "velocity": 90}, {"noteNumber": 80, "beat": 20, "duration": 1, "velocity": 90}, {"noteNumber": 64, "beat": 21, "duration": 2, "velocity": 90}, {"noteNumber": 80, "beat": 21, "duration": 1, "velocity": 90}, {"noteNumber": 53, "beat": 22, "duration": 2, "velocity": 90}, {"noteNumber": 80, "beat": 22, "duration": 1, "velocity": 90}, {"noteNumber": 64, "beat": 23, "duration": 2, "velocity": 90}, {"noteNumber": 80, "beat": 23, "duration": 1, "velocity": 90}, {"noteNumber": 53, "beat": 24, "duration": 2, "velocity": 90}, {"noteNumber": 80, "beat": 24, "duration": 1, "velocity": 90}, {"noteNumber": 64, "beat": 25, "duration": 2, "velocity": 90}, {"noteNumber": 80, "beat": 25, "duration": 1, "velocity": 90}, {"noteNumber": 53, "beat": 26, "duration": 2, "velocity": 90}, {"noteNumber": 80, "beat": 26, "duration": 1, "velocity": 90}, {"noteNumber": 64, "beat": 27, "duration": 2, "velocity": 90}, {"noteNumber": 80, "beat": 27, "duration": 1, "velocity": 90}, {"noteNumber": 53, "beat": 28, "duration": 1.5, "velocity": 90}, {"noteNumber": 88, "beat": 28, "duration": 1.5, "velocity": 90}, {"noteNumber": 64, "beat": 29, "duration": 2, "velocity": 90}, {"noteNumber": 53, "beat": 29.5, "duration": 1, "velocity": 90}, {"noteNumber": 88, "beat": 29.5, "duration": 4, "velocity": 90}, {"noteNumber": 53, "beat": 30.5, "duration": 1, "velocity": 90}, {"noteNumber": 64, "beat": 31, "duration": 2, "velocity": 90}]}, {"instrument": "ODGuitar", "volume": "90", "notes": [{"noteNumber": 74, "beat": 0, "duration": 1.5, "velocity": 90}, {"noteNumber": 72, "beat": 1.5, "duration": 1.5, "velocity": 90}, {"noteNumber": 67, "beat": 3, "duration": 1, "velocity": 90}, {"noteNumber": 74, "beat": 4, "duration": 1.5, "velocity": 90}, {"noteNumber": 76, "beat": 5.5, "duration": 3, "velocity": 90}, {"noteNumber": 77, "beat": 8, "duration": 1.5, "velocity": 90}, {"noteNumber": 76, "beat": 9.5, "duration": 1.5, "velocity": 90}, {"noteNumber": 79, "beat": 11, "duration": 1, "velocity": 90}, {"noteNumber": 77, "beat": 12, "duration": 1, "velocity": 90}, {"noteNumber": 76, "beat": 13, "duration": 1, "velocity": 90}, {"noteNumber": 74, "beat": 14, "duration": 1, "velocity": 90}, {"noteNumber": 76, "beat": 15, "duration": 1, "velocity": 90}, {"noteNumber": 72, "beat": 16, "duration": 2, "velocity": 90}, {"noteNumber": 69, "beat": 18.5, "duration": 0.5, "velocity": 90}, {"noteNumber": 71, "beat": 19, "duration": 0.5, "velocity": 90}, {"noteNumber": 72, "beat": 19.5, "duration": 0.5, "velocity": 90}, {"noteNumber": 79, "beat": 20, "duration": 1.5, "velocity": 90}, {"noteNumber": 76, "beat": 21.5, "duration": 1.5, "velocity": 90}, {"noteNumber": 72, "beat": 23, "duration": 1, "velocity": 90}, {"noteNumber": 64, "beat": 23.5, "duration": 1, "velocity": 90}, {"noteNumber": 65, "beat": 24, "duration": 1, "velocity": 90}, {"noteNumber": 65, "beat": 25, "duration": 1, "velocity": 90}, {"noteNumber": 67, "beat": 26, "duration": 1, "velocity": 90}, {"noteNumber": 69, "beat": 27, "duration": 1, "velocity": 90}, {"noteNumber": 76, "beat": 28, "duration": 0.5, "velocity": 90}, {"noteNumber": 74, "beat": 28.5, "duration": 0.5, "velocity": 90}, {"noteNumber": 76, "beat": 29, "duration": 0.5, "velocity": 90}, {"noteNumber": 74, "beat": 29.5, "duration": 3, "velocity": 90}]}, {"instrument": "ODGuitar", "volume": "31", "notes": [{"noteNumber": 64, "beat": 0, "duration": 4, "velocity": 90}, {"noteNumber": 60, "beat": 0, "duration": 4, "velocity": 90}, {"noteNumber": 55, "beat": 0, "duration": 4, "velocity": 90}, {"noteNumber": 48, "beat": 0, "duration": 4, "velocity": 90}, {"noteNumber": 65, "beat": 4, "duration": 4, "velocity": 90}, {"noteNumber": 57, "beat": 4, "duration": 4, "velocity": 90}, {"noteNumber": 53, "beat": 4, "duration": 4, "velocity": 90}, {"noteNumber": 62, "beat": 8, "duration": 0.5, "velocity": 90}, {"noteNumber": 59, "beat": 8, "duration": 0.5, "velocity": 90}, {"noteNumber": 55, "beat": 8, "duration": 0.5, "velocity": 90}, {"noteNumber": 62, "beat": 8.5, "duration": 0.5, "velocity": 90}, {"noteNumber": 59, "beat": 8.5, "duration": 0.5, "velocity": 90}, {"noteNumber": 55, "beat": 8.5, "duration": 0.5, "velocity": 90}, {"noteNumber": 62, "beat": 9, "duration": 0.5, "velocity": 90}, {"noteNumber": 59, "beat": 9, "duration": 0.5, "velocity": 90}, {"noteNumber": 55, "beat": 9, "duration": 0.5, "velocity": 90}, {"noteNumber": 62, "beat": 9.5, "duration": 0.5, "velocity": 90}, {"noteNumber": 59, "beat": 9.5, "duration": 0.5, "velocity": 90}, {"noteNumber": 55, "beat": 9.5, "duration": 0.5, "velocity": 90}, {"noteNumber": 62, "beat": 10, "duration": 0.5, "velocity": 90}, {"noteNumber": 59, "beat": 10, "duration": 0.5, "velocity": 90}, {"noteNumber": 55, "beat": 10, "duration": 0.5, "velocity": 90}, {"noteNumber": 62, "beat": 10.5, "duration": 0.5, "velocity": 90}, {"noteNumber": 59, "beat": 10.5, "duration": 0.5, "velocity": 90}, {"noteNumber": 55, "beat": 10.5, "duration": 0.5, "velocity": 90}, {"noteNumber": 62, "beat": 11, "duration": 0.5, "velocity": 90}, {"noteNumber": 59, "beat": 11, "duration": 0.5, "velocity": 90}, {"noteNumber": 55, "beat": 11, "duration": 0.5, "velocity": 90}, {"noteNumber": 62, "beat": 11.5, "duration": 0.5, "velocity": 90}, {"noteNumber": 59, "beat": 11.5, "duration": 0.5, "velocity": 90}, {"noteNumber": 55, "beat": 11.5, "duration": 0.5, "velocity": 90}, {"noteNumber": 64, "beat": 12, "duration": 0.5, "velocity": 90}, {"noteNumber": 55, "beat": 12, "duration": 0.5, "velocity": 90}, {"noteNumber": 48, "beat": 12, "duration": 0.5, "velocity": 90}, {"noteNumber": 60, "beat": 12, "duration": 0.5, "velocity": 90}, {"noteNumber": 64, "beat": 12.5, "duration": 0.5, "velocity": 90}, {"noteNumber": 55, "beat": 12.5, "duration": 0.5, "velocity": 90}, {"noteNumber": 48, "beat": 12.5, "duration": 0.5, "velocity": 90}, {"noteNumber": 60, "beat": 12.5, "duration": 0.5, "velocity": 90}, {"noteNumber": 64, "beat": 13, "duration": 0.5, "velocity": 90}, {"noteNumber": 55, "beat": 13, "duration": 0.5, "velocity": 90}, {"noteNumber": 48, "beat": 13, "duration": 0.5, "velocity": 90}, {"noteNumber": 60, "beat": 13, "duration": 0.5, "velocity": 90}, {"noteNumber": 64, "beat": 13.5, "duration": 0.5, "velocity": 90}, {"noteNumber": 55, "beat": 13.5, "duration": 0.5, "velocity": 90}, {"noteNumber": 48, "beat": 13.5, "duration": 0.5, "velocity": 90}, {"noteNumber": 60, "beat": 13.5, "duration": 0.5, "velocity": 90}, {"noteNumber": 62, "beat": 14, "duration": 0.5, "velocity": 90}, {"noteNumber": 55, "beat": 14, "duration": 0.5, "velocity": 90}, {"noteNumber": 59, "beat": 14, "duration": 0.5, "velocity": 90}, {"noteNumber": 62, "beat": 14.5, "duration": 0.5, "velocity": 90}, {"noteNumber": 55, "beat": 14.5, "duration": 0.5, "velocity": 90}, {"noteNumber": 59, "beat": 14.5, "duration": 0.5, "velocity": 90}, {"noteNumber": 62, "beat": 15, "duration": 0.5, "velocity": 90}, {"noteNumber": 55, "beat": 15, "duration": 0.5, "velocity": 90}, {"noteNumber": 59, "beat": 15, "duration": 0.5, "velocity": 90}, {"noteNumber": 62, "beat": 15.5, "duration": 0.5, "velocity": 90}, {"noteNumber": 55, "beat": 15.5, "duration": 0.5, "velocity": 90}, {"noteNumber": 59, "beat": 15.5, "duration": 0.5, "velocity": 90}, {"noteNumber": 64, "beat": 16, "duration": 0.5, "velocity": 90}, {"noteNumber": 57, "beat": 16, "duration": 0.5, "velocity": 90}, {"noteNumber": 64, "beat": 16.5, "duration": 0.5, "velocity": 90}, {"noteNumber": 57, "beat": 16.5, "duration": 0.5, "velocity": 90}, {"noteNumber": 64, "beat": 17, "duration": 0.5, "velocity": 90}, {"noteNumber": 57, "beat": 17, "duration": 0.5, "velocity": 90}, {"noteNumber": 64, "beat": 17.5, "duration": 0.5, "velocity": 90}, {"noteNumber": 57, "beat": 17.5, "duration": 0.5, "velocity": 90}, {"noteNumber": 64, "beat": 18, "duration": 0.5, "velocity": 90}, {"noteNumber": 57, "beat": 18, "duration": 0.5, "velocity": 90}, {"noteNumber": 64, "beat": 18.5, "duration": 0.5, "velocity": 90}, {"noteNumber": 57, "beat": 18.5, "duration": 0.5, "velocity": 90}, {"noteNumber": 64, "beat": 19, "duration": 0.5, "velocity": 90}, {"noteNumber": 57, "beat": 19, "duration": 0.5, "velocity": 90}, {"noteNumber": 64, "beat": 19.5, "duration": 0.5, "velocity": 90}, {"noteNumber": 57, "beat": 19.5, "duration": 0.5, "velocity": 90}, {"noteNumber": 59, "beat": 20, "duration": 0.5, "velocity": 90}, {"noteNumber": 52, "beat": 20, "duration": 0.5, "velocity": 90}, {"noteNumber": 59, "beat": 20.5, "duration": 0.5, "velocity": 90}, {"noteNumber": 52, "beat": 20.5, "duration": 0.5, "velocity": 90}, {"noteNumber": 59, "beat": 21, "duration": 0.5, "velocity": 90}, {"noteNumber": 52, "beat": 21, "duration": 0.5, "velocity": 90}, {"noteNumber": 59, "beat": 21.5, "duration": 0.5, "velocity": 90}, {"noteNumber": 52, "beat": 21.5, "duration": 0.5, "velocity": 90}, {"noteNumber": 59, "beat": 22, "duration": 0.5, "velocity": 90}, {"noteNumber": 52, "beat": 22, "duration": 0.5, "velocity": 90}, {"noteNumber": 59, "beat": 22.5, "duration": 0.5, "velocity": 90}, {"noteNumber": 52, "beat": 22.5, "duration": 0.5, "velocity": 90}, {"noteNumber": 59, "beat": 23, "duration": 0.5, "velocity": 90}, {"noteNumber": 52, "beat": 23, "duration": 0.5, "velocity": 90}, {"noteNumber": 59, "beat": 23.5, "duration": 0.5, "velocity": 90}, {"noteNumber": 52, "beat": 23.5, "duration": 0.5, "velocity": 90}, {"noteNumber": 57, "beat": 24, "duration": 0.5, "velocity": 90}, {"noteNumber": 50, "beat": 24, "duration": 0.5, "velocity": 90}, {"noteNumber": 57, "beat": 24.5, "duration": 0.5, "velocity": 90}, {"noteNumber": 50, "beat": 24.5, "duration": 0.5, "velocity": 90}, {"noteNumber": 57, "beat": 25, "duration": 0.5, "velocity": 90}, {"noteNumber": 50, "beat": 25, "duration": 0.5, "velocity": 90}, {"noteNumber": 57, "beat": 25.5, "duration": 0.5, "velocity": 90}, {"noteNumber": 50, "beat": 25.5, "duration": 0.5, "velocity": 90}, {"noteNumber": 57, "beat": 26, "duration": 0.5, "velocity": 90}, {"noteNumber": 50, "beat": 26, "duration": 0.5, "velocity": 90}, {"noteNumber": 57, "beat": 26.5, "duration": 0.5, "velocity": 90}, {"noteNumber": 50, "beat": 26.5, "duration": 0.5, "velocity": 90}, {"noteNumber": 57, "beat": 27, "duration": 0.5, "velocity": 90}, {"noteNumber": 50, "beat": 27, "duration": 0.5, "velocity": 90}, {"noteNumber": 57, "beat": 27.5, "duration": 0.5, "velocity": 90}, {"noteNumber": 50, "beat": 27.5, "duration": 0.5, "velocity": 90}, {"noteNumber": 62, "beat": 28, "duration": 0.5, "velocity": 90}, {"noteNumber": 55, "beat": 28, "duration": 0.5, "velocity": 90}, {"noteNumber": 62, "beat": 28.5, "duration": 0.5, "velocity": 90}, {"noteNumber": 55, "beat": 28.5, "duration": 0.5, "velocity": 90}, {"noteNumber": 62, "beat": 29, "duration": 0.5, "velocity": 90}, {"noteNumber": 55, "beat": 29, "duration": 0.5, "velocity": 90}, {"noteNumber": 62, "beat": 29.5, "duration": 0.5, "velocity": 90}, {"noteNumber": 55, "beat": 29.5, "duration": 0.5, "velocity": 90}, {"noteNumber": 62, "beat": 30, "duration": 0.5, "velocity": 90}, {"noteNumber": 55, "beat": 30, "duration": 0.5, "velocity": 90}, {"noteNumber": 62, "beat": 30.5, "duration": 0.5, "velocity": 90}, {"noteNumber": 55, "beat": 30.5, "duration": 0.5, "velocity": 90}, {"noteNumber": 62, "beat": 31, "duration": 0.5, "velocity": 90}, {"noteNumber": 55, "beat": 31, "duration": 0.5, "velocity": 90}, {"noteNumber": 62, "beat": 31.5, "duration": 0.5, "velocity": 90}, {"noteNumber": 55, "beat": 31.5, "duration": 0.5, "velocity": 90}]}, {"instrument": "Piano", "volume": 90, "notes": []}]}