{"name": "sora", "tempo": 160, "songID": 25, "userID": 542732, "isOnRelease": true, "createdDate": 1617983223670, "releasedDate": 1617984544581, "lastUpdatedDate": 1617986330277, "tracks": [{"instrument": "SquareLead", "volume": 90, "notes": [{"noteNumber": 79, "beat": 0, "duration": 1.5, "velocity": 90}, {"noteNumber": 77, "beat": 1.5, "duration": 1.5, "velocity": 90}, {"noteNumber": 72, "beat": 3, "duration": 1, "velocity": 90}, {"noteNumber": 79, "beat": 4, "duration": 1.5, "velocity": 90}, {"noteNumber": 77, "beat": 5.5, "duration": 1.5, "velocity": 90}, {"noteNumber": 72, "beat": 7, "duration": 1, "velocity": 90}, {"noteNumber": 82, "beat": 8, "duration": 1.5, "velocity": 90}, {"noteNumber": 81, "beat": 9.5, "duration": 1.5, "velocity": 90}, {"noteNumber": 77, "beat": 11, "duration": 1, "velocity": 90}, {"noteNumber": 79, "beat": 12, "duration": 0.5, "velocity": 90}, {"noteNumber": 77, "beat": 12.5, "duration": 0.5, "velocity": 90}, {"noteNumber": 79, "beat": 13, "duration": 0.5, "velocity": 90}, {"noteNumber": 81, "beat": 13.5, "duration": 1.5, "velocity": 90}, {"noteNumber": 77, "beat": 15, "duration": 0.5, "velocity": 90}, {"noteNumber": 76, "beat": 15.5, "duration": 0.5, "velocity": 90}, {"noteNumber": 77, "beat": 16, "duration": 1, "velocity": 90}, {"noteNumber": 74, "beat": 17, "duration": 1, "velocity": 90}, {"noteNumber": 76, "beat": 18, "duration": 0.5, "velocity": 90}, {"noteNumber": 77, "beat": 18.5, "duration": 1, "velocity": 90}, {"noteNumber": 74, "beat": 19.5, "duration": 0.5, "velocity": 90}, {"noteNumber": 72, "beat": 20, "duration": 1, "velocity": 90}, {"noteNumber": 79, "beat": 21, "duration": 0.5, "velocity": 90}, {"noteNumber": 77, "beat": 21.5, "duration": 1, "velocity": 90}, {"noteNumber": 72, "beat": 23, "duration": 1, "velocity": 90}, {"noteNumber": 74, "beat": 24, "duration": 1, "velocity": 90}, {"noteNumber": 72, "beat": 25, "duration": 1, "velocity": 90}, {"noteNumber": 74, "beat": 26, "duration": 1, "velocity": 90}, {"noteNumber": 82, "beat": 27, "duration": 1, "velocity": 90}, {"noteNumber": 81, "beat": 28, "duration": 0.5, "velocity": 90}, {"noteNumber": 82, "beat": 28.5, "duration": 0.5, "velocity": 90}, {"noteNumber": 81, "beat": 29, "duration": 0.5, "velocity": 90}, {"noteNumber": 79, "beat": 29.5, "duration": 1, "velocity": 90}, {"noteNumber": 72, "beat": 31, "duration": 1, "velocity": 90}, {"noteNumber": 79, "beat": 32, "duration": 1.5, "velocity": 90}, {"noteNumber": 77, "beat": 33.5, "duration": 1.5, "velocity": 90}, {"noteNumber": 72, "beat": 35, "duration": 1, "velocity": 90}, {"noteNumber": 79, "beat": 36, "duration": 1.5, "velocity": 90}, {"noteNumber": 77, "beat": 37.5, "duration": 1.5, "velocity": 90}, {"noteNumber": 72, "beat": 39, "duration": 1, "velocity": 90}, {"noteNumber": 82, "beat": 40, "duration": 1.5, "velocity": 90}, {"noteNumber": 81, "beat": 41.5, "duration": 1.5, "velocity": 90}, {"noteNumber": 77, "beat": 43, "duration": 1, "velocity": 90}, {"noteNumber": 79, "beat": 44, "duration": 0.5, "velocity": 90}, {"noteNumber": 77, "beat": 44.5, "duration": 0.5, "velocity": 90}, {"noteNumber": 79, "beat": 45, "duration": 0.5, "velocity": 90}, {"noteNumber": 81, "beat": 45.5, "duration": 1, "velocity": 90}, {"noteNumber": 77, "beat": 47, "duration": 0.5, "velocity": 90}, {"noteNumber": 76, "beat": 47.5, "duration": 0.5, "velocity": 90}, {"noteNumber": 77, "beat": 48, "duration": 1, "velocity": 90}, {"noteNumber": 74, "beat": 49, "duration": 1, "velocity": 90}, {"noteNumber": 76, "beat": 50, "duration": 0.5, "velocity": 90}, {"noteNumber": 77, "beat": 50.5, "duration": 1, "velocity": 90}, {"noteNumber": 86, "beat": 51.5, "duration": 0.5, "velocity": 90}, {"noteNumber": 84, "beat": 52, "duration": 1.5, "velocity": 90}, {"noteNumber": 81, "beat": 53.5, "duration": 0.5, "velocity": 90}, {"noteNumber": 81, "beat": 54, "duration": 1, "velocity": 90}, {"noteNumber": 74, "beat": 55, "duration": 1, "velocity": 90}, {"noteNumber": 82, "beat": 56, "duration": 2, "velocity": 90}, {"noteNumber": 74, "beat": 58, "duration": 0.5, "velocity": 90}, {"noteNumber": 76, "beat": 58.5, "duration": 1, "velocity": 90}, {"noteNumber": 77, "beat": 59.5, "duration": 0.5, "velocity": 90}, {"noteNumber": 72, "beat": 60, "duration": 2, "velocity": 90}, {"noteNumber": 79, "beat": 62, "duration": 1, "velocity": 90}, {"noteNumber": 81, "beat": 63, "duration": 1, "velocity": 90}, {"noteNumber": 79, "beat": 64, "duration": 1.5, "velocity": 90}, {"noteNumber": 77, "beat": 65.5, "duration": 2, "velocity": 90}]}, {"instrument": "SynthBell", "volume": "36", "notes": [{"noteNumber": 96, "beat": 21, "duration": 4, "velocity": 90}, {"noteNumber": 93, "beat": 22, "duration": 4, "velocity": 90}, {"noteNumber": 89, "beat": 23, "duration": 4, "velocity": 90}, {"noteNumber": 84, "beat": 45, "duration": 4, "velocity": 90}, {"noteNumber": 89, "beat": 46, "duration": 4, "velocity": 90}, {"noteNumber": 88, "beat": 47, "duration": 4, "velocity": 90}, {"noteNumber": 86, "beat": 48, "duration": 4, "velocity": 90}]}, {"instrument": "FingerBass", "volume": 90, "notes": [{"noteNumber": 53, "beat": 0, "duration": 0.5, "velocity": 90}, {"noteNumber": 53, "beat": 0.5, "duration": 0.5, "velocity": 90}, {"noteNumber": 53, "beat": 1, "duration": 0.5, "velocity": 90}, {"noteNumber": 53, "beat": 1.5, "duration": 0.5, "velocity": 90}, {"noteNumber": 53, "beat": 2, "duration": 0.5, "velocity": 90}, {"noteNumber": 53, "beat": 2.5, "duration": 0.5, "velocity": 90}, {"noteNumber": 53, "beat": 3, "duration": 0.5, "velocity": 90}, {"noteNumber": 53, "beat": 3.5, "duration": 0.5, "velocity": 90}, {"noteNumber": 58, "beat": 4, "duration": 0.5, "velocity": 90}, {"noteNumber": 58, "beat": 4.5, "duration": 0.5, "velocity": 90}, {"noteNumber": 58, "beat": 5, "duration": 0.5, "velocity": 90}, {"noteNumber": 58, "beat": 5.5, "duration": 0.5, "velocity": 90}, {"noteNumber": 58, "beat": 6, "duration": 0.5, "velocity": 90}, {"noteNumber": 58, "beat": 6.5, "duration": 0.5, "velocity": 90}, {"noteNumber": 58, "beat": 7, "duration": 0.5, "velocity": 90}, {"noteNumber": 58, "beat": 7.5, "duration": 0.5, "velocity": 90}, {"noteNumber": 60, "beat": 8, "duration": 0.5, "velocity": 90}, {"noteNumber": 60, "beat": 8.5, "duration": 0.5, "velocity": 90}, {"noteNumber": 60, "beat": 9, "duration": 0.5, "velocity": 90}, {"noteNumber": 60, "beat": 9.5, "duration": 0.5, "velocity": 90}, {"noteNumber": 60, "beat": 10, "duration": 0.5, "velocity": 90}, {"noteNumber": 60, "beat": 10.5, "duration": 0.5, "velocity": 90}, {"noteNumber": 60, "beat": 11, "duration": 0.5, "velocity": 90}, {"noteNumber": 60, "beat": 11.5, "duration": 0.5, "velocity": 90}, {"noteNumber": 65, "beat": 12, "duration": 0.5, "velocity": 90}, {"noteNumber": 65, "beat": 12.5, "duration": 0.5, "velocity": 90}, {"noteNumber": 65, "beat": 13, "duration": 0.5, "velocity": 90}, {"noteNumber": 65, "beat": 13.5, "duration": 0.5, "velocity": 90}, {"noteNumber": 64, "beat": 14, "duration": 0.5, "velocity": 90}, {"noteNumber": 64, "beat": 14.5, "duration": 0.5, "velocity": 90}, {"noteNumber": 64, "beat": 15, "duration": 0.5, "velocity": 90}, {"noteNumber": 64, "beat": 15.5, "duration": 0.5, "velocity": 90}, {"noteNumber": 58, "beat": 16, "duration": 0.5, "velocity": 90}, {"noteNumber": 58, "beat": 16.5, "duration": 0.5, "velocity": 90}, {"noteNumber": 58, "beat": 17, "duration": 0.5, "velocity": 90}, {"noteNumber": 58, "beat": 17.5, "duration": 0.5, "velocity": 90}, {"noteNumber": 58, "beat": 18, "duration": 0.5, "velocity": 90}, {"noteNumber": 58, "beat": 18.5, "duration": 0.5, "velocity": 90}, {"noteNumber": 58, "beat": 19, "duration": 0.5, "velocity": 90}, {"noteNumber": 58, "beat": 19.5, "duration": 0.5, "velocity": 90}, {"noteNumber": 53, "beat": 20, "duration": 0.5, "velocity": 90}, {"noteNumber": 53, "beat": 20.5, "duration": 0.5, "velocity": 90}, {"noteNumber": 53, "beat": 21, "duration": 0.5, "velocity": 90}, {"noteNumber": 53, "beat": 21.5, "duration": 0.5, "velocity": 90}, {"noteNumber": 53, "beat": 22, "duration": 0.5, "velocity": 90}, {"noteNumber": 53, "beat": 22.5, "duration": 0.5, "velocity": 90}, {"noteNumber": 53, "beat": 23, "duration": 0.5, "velocity": 90}, {"noteNumber": 53, "beat": 23.5, "duration": 0.5, "velocity": 90}, {"noteNumber": 55, "beat": 24, "duration": 0.5, "velocity": 90}, {"noteNumber": 55, "beat": 24.5, "duration": 0.5, "velocity": 90}, {"noteNumber": 55, "beat": 25, "duration": 0.5, "velocity": 90}, {"noteNumber": 55, "beat": 25.5, "duration": 0.5, "velocity": 90}, {"noteNumber": 67, "beat": 26, "duration": 0.5, "velocity": 90}, {"noteNumber": 67, "beat": 26.5, "duration": 0.5, "velocity": 90}, {"noteNumber": 67, "beat": 27, "duration": 0.5, "velocity": 90}, {"noteNumber": 67, "beat": 27.5, "duration": 0.5, "velocity": 90}, {"noteNumber": 60, "beat": 28, "duration": 0.5, "velocity": 90}, {"noteNumber": 72, "beat": 28.5, "duration": 0.5, "velocity": 90}, {"noteNumber": 58, "beat": 29, "duration": 0.5, "velocity": 90}, {"noteNumber": 70, "beat": 29.5, "duration": 0.5, "velocity": 90}, {"noteNumber": 57, "beat": 30, "duration": 0.5, "velocity": 90}, {"noteNumber": 69, "beat": 30.5, "duration": 0.5, "velocity": 90}, {"noteNumber": 55, "beat": 31, "duration": 0.5, "velocity": 90}, {"noteNumber": 67, "beat": 31.5, "duration": 0.5, "velocity": 90}, {"noteNumber": 53, "beat": 32, "duration": 0.5, "velocity": 90}, {"noteNumber": 53, "beat": 32.5, "duration": 0.5, "velocity": 90}, {"noteNumber": 53, "beat": 33, "duration": 0.5, "velocity": 90}, {"noteNumber": 53, "beat": 33.5, "duration": 0.5, "velocity": 90}, {"noteNumber": 53, "beat": 34, "duration": 0.5, "velocity": 90}, {"noteNumber": 53, "beat": 34.5, "duration": 0.5, "velocity": 90}, {"noteNumber": 53, "beat": 35, "duration": 0.5, "velocity": 90}, {"noteNumber": 53, "beat": 35.5, "duration": 0.5, "velocity": 90}, {"noteNumber": 58, "beat": 36, "duration": 0.5, "velocity": 90}, {"noteNumber": 58, "beat": 36.5, "duration": 0.5, "velocity": 90}, {"noteNumber": 58, "beat": 37, "duration": 0.5, "velocity": 90}, {"noteNumber": 58, "beat": 37.5, "duration": 0.5, "velocity": 90}, {"noteNumber": 58, "beat": 38, "duration": 0.5, "velocity": 90}, {"noteNumber": 58, "beat": 38.5, "duration": 0.5, "velocity": 90}, {"noteNumber": 58, "beat": 39, "duration": 0.5, "velocity": 90}, {"noteNumber": 58, "beat": 39.5, "duration": 0.5, "velocity": 90}, {"noteNumber": 60, "beat": 40, "duration": 0.5, "velocity": 90}, {"noteNumber": 60, "beat": 40.5, "duration": 0.5, "velocity": 90}, {"noteNumber": 60, "beat": 41, "duration": 0.5, "velocity": 90}, {"noteNumber": 60, "beat": 41.5, "duration": 0.5, "velocity": 90}, {"noteNumber": 60, "beat": 42, "duration": 0.5, "velocity": 90}, {"noteNumber": 60, "beat": 42.5, "duration": 0.5, "velocity": 90}, {"noteNumber": 60, "beat": 43, "duration": 0.5, "velocity": 90}, {"noteNumber": 60, "beat": 43.5, "duration": 0.5, "velocity": 90}, {"noteNumber": 65, "beat": 44, "duration": 0.5, "velocity": 90}, {"noteNumber": 65, "beat": 44.5, "duration": 0.5, "velocity": 90}, {"noteNumber": 65, "beat": 45, "duration": 0.5, "velocity": 90}, {"noteNumber": 65, "beat": 45.5, "duration": 0.5, "velocity": 90}, {"noteNumber": 64, "beat": 46, "duration": 0.5, "velocity": 90}, {"noteNumber": 64, "beat": 46.5, "duration": 0.5, "velocity": 90}, {"noteNumber": 64, "beat": 47, "duration": 0.5, "velocity": 90}, {"noteNumber": 64, "beat": 47.5, "duration": 0.5, "velocity": 90}, {"noteNumber": 58, "beat": 48, "duration": 0.5, "velocity": 90}, {"noteNumber": 58, "beat": 48.5, "duration": 0.5, "velocity": 90}, {"noteNumber": 58, "beat": 49, "duration": 0.5, "velocity": 90}, {"noteNumber": 58, "beat": 49.5, "duration": 0.5, "velocity": 90}, {"noteNumber": 58, "beat": 50, "duration": 0.5, "velocity": 90}, {"noteNumber": 58, "beat": 50.5, "duration": 0.5, "velocity": 90}, {"noteNumber": 58, "beat": 51, "duration": 0.5, "velocity": 90}, {"noteNumber": 58, "beat": 51.5, "duration": 0.5, "velocity": 90}, {"noteNumber": 53, "beat": 52, "duration": 0.5, "velocity": 90}, {"noteNumber": 53, "beat": 52.5, "duration": 0.5, "velocity": 90}, {"noteNumber": 53, "beat": 53, "duration": 0.5, "velocity": 90}, {"noteNumber": 53, "beat": 53.5, "duration": 0.5, "velocity": 90}, {"noteNumber": 53, "beat": 54, "duration": 0.5, "velocity": 90}, {"noteNumber": 53, "beat": 54.5, "duration": 0.5, "velocity": 90}, {"noteNumber": 53, "beat": 55, "duration": 0.5, "velocity": 90}, {"noteNumber": 53, "beat": 55.5, "duration": 0.5, "velocity": 90}, {"noteNumber": 58, "beat": 56, "duration": 0.5, "velocity": 90}, {"noteNumber": 58, "beat": 56.5, "duration": 0.5, "velocity": 90}, {"noteNumber": 58, "beat": 57, "duration": 0.5, "velocity": 90}, {"noteNumber": 58, "beat": 57.5, "duration": 0.5, "velocity": 90}, {"noteNumber": 58, "beat": 58, "duration": 0.5, "velocity": 90}, {"noteNumber": 58, "beat": 58.5, "duration": 0.5, "velocity": 90}, {"noteNumber": 58, "beat": 59, "duration": 0.5, "velocity": 90}, {"noteNumber": 58, "beat": 59.5, "duration": 0.5, "velocity": 90}, {"noteNumber": 60, "beat": 60, "duration": 0.5, "velocity": 90}, {"noteNumber": 60, "beat": 60.5, "duration": 0.5, "velocity": 90}, {"noteNumber": 60, "beat": 61, "duration": 0.5, "velocity": 90}, {"noteNumber": 60, "beat": 61.5, "duration": 0.5, "velocity": 90}, {"noteNumber": 60, "beat": 62, "duration": 0.5, "velocity": 90}, {"noteNumber": 60, "beat": 62.5, "duration": 0.5, "velocity": 90}, {"noteNumber": 60, "beat": 63, "duration": 0.5, "velocity": 90}, {"noteNumber": 60, "beat": 63.5, "duration": 0.5, "velocity": 90}, {"noteNumber": 58, "beat": 64, "duration": 1.5, "velocity": 90}, {"noteNumber": 60, "beat": 65.5, "duration": 1, "velocity": 90}, {"noteNumber": 60, "beat": 66.5, "duration": 1, "velocity": 90}, {"noteNumber": 53, "beat": 67.5, "duration": 4, "velocity": 90}]}, {"instrument": "Strings", "volume": 90, "notes": []}, {"instrument": "Percussion", "volume": 90, "notes": [{"noteNumber": 92, "beat": 0, "duration": 4, "velocity": 90}, {"noteNumber": 52, "beat": 0, "duration": 1, "velocity": 90}, {"noteNumber": 78, "beat": 1, "duration": 1, "velocity": 90}, {"noteNumber": 61, "beat": 1, "duration": 1, "velocity": 90}, {"noteNumber": 78, "beat": 2, "duration": 1, "velocity": 90}, {"noteNumber": 52, "beat": 2, "duration": 1, "velocity": 90}, {"noteNumber": 78, "beat": 3, "duration": 1, "velocity": 90}, {"noteNumber": 61, "beat": 3, "duration": 1, "velocity": 90}, {"noteNumber": 78, "beat": 4, "duration": 1, "velocity": 90}, {"noteNumber": 52, "beat": 4, "duration": 1, "velocity": 90}, {"noteNumber": 78, "beat": 5, "duration": 1, "velocity": 90}, {"noteNumber": 61, "beat": 5, "duration": 1, "velocity": 90}, {"noteNumber": 78, "beat": 6, "duration": 1, "velocity": 90}, {"noteNumber": 52, "beat": 6, "duration": 1, "velocity": 90}, {"noteNumber": 78, "beat": 7, "duration": 1, "velocity": 90}, {"noteNumber": 61, "beat": 7, "duration": 1, "velocity": 90}, {"noteNumber": 78, "beat": 8, "duration": 1, "velocity": 90}, {"noteNumber": 52, "beat": 8, "duration": 1, "velocity": 90}, {"noteNumber": 78, "beat": 9, "duration": 1, "velocity": 90}, {"noteNumber": 61, "beat": 9, "duration": 1, "velocity": 90}, {"noteNumber": 78, "beat": 10, "duration": 1, "velocity": 90}, {"noteNumber": 52, "beat": 10, "duration": 1, "velocity": 90}, {"noteNumber": 78, "beat": 11, "duration": 1, "velocity": 90}, {"noteNumber": 61, "beat": 11, "duration": 1, "velocity": 90}, {"noteNumber": 78, "beat": 12, "duration": 1, "velocity": 90}, {"noteNumber": 52, "beat": 12, "duration": 1, "velocity": 90}, {"noteNumber": 78, "beat": 13, "duration": 1, "velocity": 90}, {"noteNumber": 61, "beat": 13, "duration": 1, "velocity": 90}, {"noteNumber": 78, "beat": 14, "duration": 1, "velocity": 90}, {"noteNumber": 52, "beat": 14, "duration": 1, "velocity": 90}, {"noteNumber": 78, "beat": 15, "duration": 1, "velocity": 90}, {"noteNumber": 61, "beat": 15, "duration": 1, "velocity": 90}, {"noteNumber": 78, "beat": 16, "duration": 1, "velocity": 90}, {"noteNumber": 52, "beat": 16, "duration": 1, "velocity": 90}, {"noteNumber": 78, "beat": 17, "duration": 1, "velocity": 90}, {"noteNumber": 61, "beat": 17, "duration": 1, "velocity": 90}, {"noteNumber": 78, "beat": 18, "duration": 1, "velocity": 90}, {"noteNumber": 52, "beat": 18, "duration": 1, "velocity": 90}, {"noteNumber": 78, "beat": 19, "duration": 1, "velocity": 90}, {"noteNumber": 61, "beat": 19, "duration": 1, "velocity": 90}, {"noteNumber": 78, "beat": 20, "duration": 1, "velocity": 90}, {"noteNumber": 52, "beat": 20, "duration": 1, "velocity": 90}, {"noteNumber": 78, "beat": 21, "duration": 1, "velocity": 90}, {"noteNumber": 61, "beat": 21, "duration": 1, "velocity": 90}, {"noteNumber": 78, "beat": 22, "duration": 1, "velocity": 90}, {"noteNumber": 52, "beat": 22, "duration": 1, "velocity": 90}, {"noteNumber": 78, "beat": 23, "duration": 1, "velocity": 90}, {"noteNumber": 61, "beat": 23, "duration": 1, "velocity": 90}, {"noteNumber": 78, "beat": 24, "duration": 1, "velocity": 90}, {"noteNumber": 52, "beat": 24, "duration": 1, "velocity": 90}, {"noteNumber": 78, "beat": 25, "duration": 1, "velocity": 90}, {"noteNumber": 61, "beat": 25, "duration": 1, "velocity": 90}, {"noteNumber": 78, "beat": 26, "duration": 1, "velocity": 90}, {"noteNumber": 52, "beat": 26, "duration": 1, "velocity": 90}, {"noteNumber": 78, "beat": 27, "duration": 1, "velocity": 90}, {"noteNumber": 61, "beat": 27, "duration": 1, "velocity": 90}, {"noteNumber": 78, "beat": 28, "duration": 1, "velocity": 90}, {"noteNumber": 52, "beat": 28, "duration": 1, "velocity": 90}, {"noteNumber": 78, "beat": 29, "duration": 1, "velocity": 90}, {"noteNumber": 61, "beat": 29, "duration": 1, "velocity": 90}, {"noteNumber": 78, "beat": 30, "duration": 1, "velocity": 90}, {"noteNumber": 52, "beat": 30, "duration": 1, "velocity": 90}, {"noteNumber": 78, "beat": 31, "duration": 1, "velocity": 90}, {"noteNumber": 61, "beat": 31, "duration": 1, "velocity": 90}, {"noteNumber": 93, "beat": 32, "duration": 4, "velocity": 90}, {"noteNumber": 52, "beat": 32, "duration": 1, "velocity": 90}, {"noteNumber": 61, "beat": 33, "duration": 1, "velocity": 90}, {"noteNumber": 78, "beat": 33, "duration": 1, "velocity": 90}, {"noteNumber": 52, "beat": 34, "duration": 1, "velocity": 90}, {"noteNumber": 78, "beat": 34, "duration": 1, "velocity": 90}, {"noteNumber": 61, "beat": 35, "duration": 1, "velocity": 90}, {"noteNumber": 78, "beat": 35, "duration": 1, "velocity": 90}, {"noteNumber": 52, "beat": 36, "duration": 1, "velocity": 90}, {"noteNumber": 78, "beat": 36, "duration": 1, "velocity": 90}, {"noteNumber": 61, "beat": 37, "duration": 1, "velocity": 90}, {"noteNumber": 78, "beat": 37, "duration": 1, "velocity": 90}, {"noteNumber": 52, "beat": 38, "duration": 1, "velocity": 90}, {"noteNumber": 78, "beat": 38, "duration": 1, "velocity": 90}, {"noteNumber": 61, "beat": 39, "duration": 1, "velocity": 90}, {"noteNumber": 78, "beat": 39, "duration": 1, "velocity": 90}, {"noteNumber": 52, "beat": 40, "duration": 1, "velocity": 90}, {"noteNumber": 78, "beat": 40, "duration": 1, "velocity": 90}, {"noteNumber": 61, "beat": 41, "duration": 1, "velocity": 90}, {"noteNumber": 78, "beat": 41, "duration": 1, "velocity": 90}, {"noteNumber": 52, "beat": 42, "duration": 1, "velocity": 90}, {"noteNumber": 78, "beat": 42, "duration": 1, "velocity": 90}, {"noteNumber": 61, "beat": 43, "duration": 1, "velocity": 90}, {"noteNumber": 78, "beat": 43, "duration": 1, "velocity": 90}, {"noteNumber": 52, "beat": 44, "duration": 1, "velocity": 90}, {"noteNumber": 78, "beat": 44, "duration": 1, "velocity": 90}, {"noteNumber": 61, "beat": 45, "duration": 1, "velocity": 90}, {"noteNumber": 78, "beat": 45, "duration": 1, "velocity": 90}, {"noteNumber": 52, "beat": 46, "duration": 1, "velocity": 90}, {"noteNumber": 78, "beat": 46, "duration": 1, "velocity": 90}, {"noteNumber": 61, "beat": 47, "duration": 1, "velocity": 90}, {"noteNumber": 78, "beat": 47, "duration": 1, "velocity": 90}, {"noteNumber": 52, "beat": 48, "duration": 1, "velocity": 90}, {"noteNumber": 78, "beat": 48, "duration": 1, "velocity": 90}, {"noteNumber": 61, "beat": 49, "duration": 1, "velocity": 90}, {"noteNumber": 78, "beat": 49, "duration": 1, "velocity": 90}, {"noteNumber": 52, "beat": 50, "duration": 1, "velocity": 90}, {"noteNumber": 78, "beat": 50, "duration": 1, "velocity": 90}, {"noteNumber": 61, "beat": 51, "duration": 1, "velocity": 90}, {"noteNumber": 78, "beat": 51, "duration": 1, "velocity": 90}, {"noteNumber": 52, "beat": 52, "duration": 1, "velocity": 90}, {"noteNumber": 78, "beat": 52, "duration": 1, "velocity": 90}, {"noteNumber": 61, "beat": 53, "duration": 1, "velocity": 90}, {"noteNumber": 78, "beat": 53, "duration": 1, "velocity": 90}, {"noteNumber": 52, "beat": 54, "duration": 1, "velocity": 90}, {"noteNumber": 78, "beat": 54, "duration": 1, "velocity": 90}, {"noteNumber": 61, "beat": 55, "duration": 1, "velocity": 90}, {"noteNumber": 78, "beat": 55, "duration": 1, "velocity": 90}, {"noteNumber": 52, "beat": 56, "duration": 1, "velocity": 90}, {"noteNumber": 78, "beat": 56, "duration": 1, "velocity": 90}, {"noteNumber": 61, "beat": 57, "duration": 1, "velocity": 90}, {"noteNumber": 78, "beat": 57, "duration": 1, "velocity": 90}, {"noteNumber": 52, "beat": 58, "duration": 1, "velocity": 90}, {"noteNumber": 78, "beat": 58, "duration": 1, "velocity": 90}, {"noteNumber": 61, "beat": 59, "duration": 1, "velocity": 90}, {"noteNumber": 78, "beat": 59, "duration": 1, "velocity": 90}, {"noteNumber": 52, "beat": 60, "duration": 1, "velocity": 90}, {"noteNumber": 78, "beat": 60, "duration": 1, "velocity": 90}, {"noteNumber": 61, "beat": 61, "duration": 1, "velocity": 90}, {"noteNumber": 78, "beat": 61, "duration": 1, "velocity": 90}, {"noteNumber": 52, "beat": 62, "duration": 1, "velocity": 90}, {"noteNumber": 78, "beat": 62, "duration": 1, "velocity": 90}, {"noteNumber": 61, "beat": 63, "duration": 1, "velocity": 90}, {"noteNumber": 78, "beat": 63, "duration": 1, "velocity": 90}, {"noteNumber": 52, "beat": 64, "duration": 1, "velocity": 90}, {"noteNumber": 92, "beat": 64, "duration": 1.5, "velocity": 90}, {"noteNumber": 61, "beat": 65, "duration": 1, "velocity": 90}, {"noteNumber": 52, "beat": 65.5, "duration": 1, "velocity": 90}, {"noteNumber": 92, "beat": 65.5, "duration": 2, "velocity": 90}, {"noteNumber": 61, "beat": 67, "duration": 1, "velocity": 90}, {"noteNumber": 52, "beat": 67.5, "duration": 1, "velocity": 90}, {"noteNumber": 92, "beat": 67.5, "duration": 6, "velocity": 90}]}, {"instrument": "ODGuitar", "volume": "45", "notes": [{"noteNumber": 65, "beat": 0, "duration": 0.5, "velocity": 90}, {"noteNumber": 69, "beat": 0, "duration": 0.5, "velocity": 90}, {"noteNumber": 60, "beat": 0, "duration": 0.5, "velocity": 90}, {"noteNumber": 65, "beat": 0.5, "duration": 0.5, "velocity": 90}, {"noteNumber": 60, "beat": 0.5, "duration": 0.5, "velocity": 90}, {"noteNumber": 69, "beat": 0.5, "duration": 0.5, "velocity": 90}, {"noteNumber": 65, "beat": 1, "duration": 0.5, "velocity": 90}, {"noteNumber": 69, "beat": 1, "duration": 0.5, "velocity": 90}, {"noteNumber": 60, "beat": 1, "duration": 0.5, "velocity": 90}, {"noteNumber": 65, "beat": 1.5, "duration": 0.5, "velocity": 90}, {"noteNumber": 69, "beat": 1.5, "duration": 0.5, "velocity": 90}, {"noteNumber": 60, "beat": 1.5, "duration": 0.5, "velocity": 90}, {"noteNumber": 65, "beat": 2, "duration": 0.5, "velocity": 90}, {"noteNumber": 69, "beat": 2, "duration": 0.5, "velocity": 90}, {"noteNumber": 60, "beat": 2, "duration": 0.5, "velocity": 90}, {"noteNumber": 65, "beat": 2.5, "duration": 0.5, "velocity": 90}, {"noteNumber": 60, "beat": 2.5, "duration": 0.5, "velocity": 90}, {"noteNumber": 69, "beat": 2.5, "duration": 0.5, "velocity": 90}, {"noteNumber": 65, "beat": 3, "duration": 0.5, "velocity": 90}, {"noteNumber": 69, "beat": 3, "duration": 0.5, "velocity": 90}, {"noteNumber": 60, "beat": 3, "duration": 0.5, "velocity": 90}, {"noteNumber": 65, "beat": 3.5, "duration": 0.5, "velocity": 90}, {"noteNumber": 60, "beat": 3.5, "duration": 0.5, "velocity": 90}, {"noteNumber": 69, "beat": 3.5, "duration": 0.5, "velocity": 90}, {"noteNumber": 60, "beat": 4, "duration": 0.5, "velocity": 90}, {"noteNumber": 65, "beat": 4, "duration": 0.5, "velocity": 90}, {"noteNumber": 69, "beat": 4, "duration": 0.5, "velocity": 90}, {"noteNumber": 60, "beat": 4.5, "duration": 0.5, "velocity": 90}, {"noteNumber": 65, "beat": 4.5, "duration": 0.5, "velocity": 90}, {"noteNumber": 69, "beat": 4.5, "duration": 0.5, "velocity": 90}, {"noteNumber": 60, "beat": 5, "duration": 0.5, "velocity": 90}, {"noteNumber": 65, "beat": 5, "duration": 0.5, "velocity": 90}, {"noteNumber": 69, "beat": 5, "duration": 0.5, "velocity": 90}, {"noteNumber": 60, "beat": 5.5, "duration": 0.5, "velocity": 90}, {"noteNumber": 65, "beat": 5.5, "duration": 0.5, "velocity": 90}, {"noteNumber": 69, "beat": 5.5, "duration": 0.5, "velocity": 90}, {"noteNumber": 60, "beat": 6, "duration": 0.5, "velocity": 90}, {"noteNumber": 65, "beat": 6, "duration": 0.5, "velocity": 90}, {"noteNumber": 69, "beat": 6, "duration": 0.5, "velocity": 90}, {"noteNumber": 60, "beat": 6.5, "duration": 0.5, "velocity": 90}, {"noteNumber": 65, "beat": 6.5, "duration": 0.5, "velocity": 90}, {"noteNumber": 69, "beat": 6.5, "duration": 0.5, "velocity": 90}, {"noteNumber": 60, "beat": 7, "duration": 0.5, "velocity": 90}, {"noteNumber": 65, "beat": 7, "duration": 0.5, "velocity": 90}, {"noteNumber": 69, "beat": 7, "duration": 0.5, "velocity": 90}, {"noteNumber": 60, "beat": 7.5, "duration": 0.5, "velocity": 90}, {"noteNumber": 65, "beat": 7.5, "duration": 0.5, "velocity": 90}, {"noteNumber": 69, "beat": 7.5, "duration": 0.5, "velocity": 90}, {"noteNumber": 70, "beat": 8, "duration": 0.5, "velocity": 90}, {"noteNumber": 60, "beat": 8, "duration": 0.5, "velocity": 90}, {"noteNumber": 65, "beat": 8, "duration": 0.5, "velocity": 90}, {"noteNumber": 70, "beat": 8.5, "duration": 0.5, "velocity": 90}, {"noteNumber": 60, "beat": 8.5, "duration": 0.5, "velocity": 90}, {"noteNumber": 65, "beat": 8.5, "duration": 0.5, "velocity": 90}, {"noteNumber": 70, "beat": 9, "duration": 0.5, "velocity": 90}, {"noteNumber": 60, "beat": 9, "duration": 0.5, "velocity": 90}, {"noteNumber": 65, "beat": 9, "duration": 0.5, "velocity": 90}, {"noteNumber": 70, "beat": 9.5, "duration": 0.5, "velocity": 90}, {"noteNumber": 60, "beat": 9.5, "duration": 0.5, "velocity": 90}, {"noteNumber": 65, "beat": 9.5, "duration": 0.5, "velocity": 90}, {"noteNumber": 70, "beat": 10, "duration": 0.5, "velocity": 90}, {"noteNumber": 60, "beat": 10, "duration": 0.5, "velocity": 90}, {"noteNumber": 65, "beat": 10, "duration": 0.5, "velocity": 90}, {"noteNumber": 70, "beat": 10.5, "duration": 0.5, "velocity": 90}, {"noteNumber": 60, "beat": 10.5, "duration": 0.5, "velocity": 90}, {"noteNumber": 65, "beat": 10.5, "duration": 0.5, "velocity": 90}, {"noteNumber": 70, "beat": 11, "duration": 0.5, "velocity": 90}, {"noteNumber": 60, "beat": 11, "duration": 0.5, "velocity": 90}, {"noteNumber": 65, "beat": 11, "duration": 0.5, "velocity": 90}, {"noteNumber": 70, "beat": 11.5, "duration": 0.5, "velocity": 90}, {"noteNumber": 60, "beat": 11.5, "duration": 0.5, "velocity": 90}, {"noteNumber": 65, "beat": 11.5, "duration": 0.5, "velocity": 90}, {"noteNumber": 60, "beat": 12, "duration": 0.5, "velocity": 90}, {"noteNumber": 65, "beat": 12, "duration": 0.5, "velocity": 90}, {"noteNumber": 69, "beat": 12, "duration": 0.5, "velocity": 90}, {"noteNumber": 60, "beat": 12.5, "duration": 0.5, "velocity": 90}, {"noteNumber": 65, "beat": 12.5, "duration": 0.5, "velocity": 90}, {"noteNumber": 69, "beat": 12.5, "duration": 0.5, "velocity": 90}, {"noteNumber": 60, "beat": 13, "duration": 0.5, "velocity": 90}, {"noteNumber": 65, "beat": 13, "duration": 0.5, "velocity": 90}, {"noteNumber": 69, "beat": 13, "duration": 0.5, "velocity": 90}, {"noteNumber": 60, "beat": 13.5, "duration": 0.5, "velocity": 90}, {"noteNumber": 65, "beat": 13.5, "duration": 0.5, "velocity": 90}, {"noteNumber": 69, "beat": 13.5, "duration": 0.5, "velocity": 90}, {"noteNumber": 60, "beat": 14, "duration": 0.5, "velocity": 90}, {"noteNumber": 65, "beat": 14, "duration": 0.5, "velocity": 90}, {"noteNumber": 69, "beat": 14, "duration": 0.5, "velocity": 90}, {"noteNumber": 60, "beat": 14.5, "duration": 0.5, "velocity": 90}, {"noteNumber": 65, "beat": 14.5, "duration": 0.5, "velocity": 90}, {"noteNumber": 69, "beat": 14.5, "duration": 0.5, "velocity": 90}, {"noteNumber": 60, "beat": 15, "duration": 0.5, "velocity": 90}, {"noteNumber": 65, "beat": 15, "duration": 0.5, "velocity": 90}, {"noteNumber": 69, "beat": 15, "duration": 0.5, "velocity": 90}, {"noteNumber": 60, "beat": 15.5, "duration": 0.5, "velocity": 90}, {"noteNumber": 65, "beat": 15.5, "duration": 0.5, "velocity": 90}, {"noteNumber": 69, "beat": 15.5, "duration": 0.5, "velocity": 90}, {"noteNumber": 69, "beat": 16, "duration": 0.5, "velocity": 90}, {"noteNumber": 60, "beat": 16, "duration": 0.5, "velocity": 90}, {"noteNumber": 65, "beat": 16, "duration": 0.5, "velocity": 90}, {"noteNumber": 69, "beat": 16.5, "duration": 0.5, "velocity": 90}, {"noteNumber": 60, "beat": 16.5, "duration": 0.5, "velocity": 90}, {"noteNumber": 65, "beat": 16.5, "duration": 0.5, "velocity": 90}, {"noteNumber": 69, "beat": 17, "duration": 0.5, "velocity": 90}, {"noteNumber": 60, "beat": 17, "duration": 0.5, "velocity": 90}, {"noteNumber": 65, "beat": 17, "duration": 0.5, "velocity": 90}, {"noteNumber": 69, "beat": 17.5, "duration": 0.5, "velocity": 90}, {"noteNumber": 60, "beat": 17.5, "duration": 0.5, "velocity": 90}, {"noteNumber": 65, "beat": 17.5, "duration": 0.5, "velocity": 90}, {"noteNumber": 69, "beat": 18, "duration": 0.5, "velocity": 90}, {"noteNumber": 60, "beat": 18, "duration": 0.5, "velocity": 90}, {"noteNumber": 65, "beat": 18, "duration": 0.5, "velocity": 90}, {"noteNumber": 69, "beat": 18.5, "duration": 0.5, "velocity": 90}, {"noteNumber": 60, "beat": 18.5, "duration": 0.5, "velocity": 90}, {"noteNumber": 65, "beat": 18.5, "duration": 0.5, "velocity": 90}, {"noteNumber": 69, "beat": 19, "duration": 0.5, "velocity": 90}, {"noteNumber": 60, "beat": 19, "duration": 0.5, "velocity": 90}, {"noteNumber": 65, "beat": 19, "duration": 0.5, "velocity": 90}, {"noteNumber": 69, "beat": 19.5, "duration": 0.5, "velocity": 90}, {"noteNumber": 60, "beat": 19.5, "duration": 0.5, "velocity": 90}, {"noteNumber": 65, "beat": 19.5, "duration": 0.5, "velocity": 90}, {"noteNumber": 60, "beat": 20, "duration": 0.5, "velocity": 90}, {"noteNumber": 65, "beat": 20, "duration": 0.5, "velocity": 90}, {"noteNumber": 69, "beat": 20, "duration": 0.5, "velocity": 90}, {"noteNumber": 60, "beat": 20.5, "duration": 0.5, "velocity": 90}, {"noteNumber": 65, "beat": 20.5, "duration": 0.5, "velocity": 90}, {"noteNumber": 69, "beat": 20.5, "duration": 0.5, "velocity": 90}, {"noteNumber": 60, "beat": 21, "duration": 0.5, "velocity": 90}, {"noteNumber": 65, "beat": 21, "duration": 0.5, "velocity": 90}, {"noteNumber": 69, "beat": 21, "duration": 0.5, "velocity": 90}, {"noteNumber": 60, "beat": 21.5, "duration": 0.5, "velocity": 90}, {"noteNumber": 65, "beat": 21.5, "duration": 0.5, "velocity": 90}, {"noteNumber": 69, "beat": 21.5, "duration": 0.5, "velocity": 90}, {"noteNumber": 65, "beat": 22, "duration": 0.5, "velocity": 90}, {"noteNumber": 69, "beat": 22, "duration": 0.5, "velocity": 90}, {"noteNumber": 60, "beat": 22, "duration": 0.5, "velocity": 90}, {"noteNumber": 65, "beat": 22.5, "duration": 0.5, "velocity": 90}, {"noteNumber": 69, "beat": 22.5, "duration": 0.5, "velocity": 90}, {"noteNumber": 60, "beat": 22.5, "duration": 0.5, "velocity": 90}, {"noteNumber": 65, "beat": 23, "duration": 0.5, "velocity": 90}, {"noteNumber": 69, "beat": 23, "duration": 0.5, "velocity": 90}, {"noteNumber": 60, "beat": 23, "duration": 0.5, "velocity": 90}, {"noteNumber": 65, "beat": 23.5, "duration": 0.5, "velocity": 90}, {"noteNumber": 69, "beat": 23.5, "duration": 0.5, "velocity": 90}, {"noteNumber": 60, "beat": 23.5, "duration": 0.5, "velocity": 90}, {"noteNumber": 62, "beat": 24, "duration": 0.5, "velocity": 90}, {"noteNumber": 67, "beat": 24, "duration": 0.5, "velocity": 90}, {"noteNumber": 70, "beat": 24, "duration": 0.5, "velocity": 90}, {"noteNumber": 62, "beat": 24.5, "duration": 0.5, "velocity": 90}, {"noteNumber": 67, "beat": 24.5, "duration": 0.5, "velocity": 90}, {"noteNumber": 70, "beat": 24.5, "duration": 0.5, "velocity": 90}, {"noteNumber": 62, "beat": 25, "duration": 0.5, "velocity": 90}, {"noteNumber": 67, "beat": 25, "duration": 0.5, "velocity": 90}, {"noteNumber": 70, "beat": 25, "duration": 0.5, "velocity": 90}, {"noteNumber": 62, "beat": 25.5, "duration": 0.5, "velocity": 90}, {"noteNumber": 67, "beat": 25.5, "duration": 0.5, "velocity": 90}, {"noteNumber": 70, "beat": 25.5, "duration": 0.5, "velocity": 90}, {"noteNumber": 62, "beat": 26, "duration": 0.5, "velocity": 90}, {"noteNumber": 67, "beat": 26, "duration": 0.5, "velocity": 90}, {"noteNumber": 70, "beat": 26, "duration": 0.5, "velocity": 90}, {"noteNumber": 62, "beat": 26.5, "duration": 0.5, "velocity": 90}, {"noteNumber": 67, "beat": 26.5, "duration": 0.5, "velocity": 90}, {"noteNumber": 70, "beat": 26.5, "duration": 0.5, "velocity": 90}, {"noteNumber": 62, "beat": 27, "duration": 0.5, "velocity": 90}, {"noteNumber": 67, "beat": 27, "duration": 0.5, "velocity": 90}, {"noteNumber": 70, "beat": 27, "duration": 0.5, "velocity": 90}, {"noteNumber": 62, "beat": 27.5, "duration": 0.5, "velocity": 90}, {"noteNumber": 67, "beat": 27.5, "duration": 0.5, "velocity": 90}, {"noteNumber": 70, "beat": 27.5, "duration": 0.5, "velocity": 90}, {"noteNumber": 60, "beat": 28, "duration": 0.5, "velocity": 90}, {"noteNumber": 67, "beat": 28, "duration": 0.5, "velocity": 90}, {"noteNumber": 72, "beat": 28, "duration": 0.5, "velocity": 90}, {"noteNumber": 60, "beat": 28.5, "duration": 0.5, "velocity": 90}, {"noteNumber": 67, "beat": 28.5, "duration": 0.5, "velocity": 90}, {"noteNumber": 72, "beat": 28.5, "duration": 0.5, "velocity": 90}, {"noteNumber": 67, "beat": 29, "duration": 0.5, "velocity": 90}, {"noteNumber": 72, "beat": 29, "duration": 0.5, "velocity": 90}, {"noteNumber": 60, "beat": 29, "duration": 0.5, "velocity": 90}, {"noteNumber": 67, "beat": 29.5, "duration": 0.5, "velocity": 90}, {"noteNumber": 72, "beat": 29.5, "duration": 0.5, "velocity": 90}, {"noteNumber": 60, "beat": 29.5, "duration": 0.5, "velocity": 90}, {"noteNumber": 67, "beat": 30, "duration": 0.5, "velocity": 90}, {"noteNumber": 72, "beat": 30, "duration": 0.5, "velocity": 90}, {"noteNumber": 60, "beat": 30, "duration": 0.5, "velocity": 90}, {"noteNumber": 67, "beat": 30.5, "duration": 0.5, "velocity": 90}, {"noteNumber": 72, "beat": 30.5, "duration": 0.5, "velocity": 90}, {"noteNumber": 60, "beat": 30.5, "duration": 0.5, "velocity": 90}, {"noteNumber": 67, "beat": 31, "duration": 0.5, "velocity": 90}, {"noteNumber": 72, "beat": 31, "duration": 0.5, "velocity": 90}, {"noteNumber": 60, "beat": 31, "duration": 0.5, "velocity": 90}, {"noteNumber": 67, "beat": 31.5, "duration": 0.5, "velocity": 90}, {"noteNumber": 72, "beat": 31.5, "duration": 0.5, "velocity": 90}, {"noteNumber": 60, "beat": 31.5, "duration": 0.5, "velocity": 90}, {"noteNumber": 60, "beat": 32, "duration": 0.5, "velocity": 90}, {"noteNumber": 65, "beat": 32, "duration": 0.5, "velocity": 90}, {"noteNumber": 69, "beat": 32, "duration": 0.5, "velocity": 90}, {"noteNumber": 60, "beat": 32.5, "duration": 0.5, "velocity": 90}, {"noteNumber": 65, "beat": 32.5, "duration": 0.5, "velocity": 90}, {"noteNumber": 69, "beat": 32.5, "duration": 0.5, "velocity": 90}, {"noteNumber": 60, "beat": 33, "duration": 0.5, "velocity": 90}, {"noteNumber": 65, "beat": 33, "duration": 0.5, "velocity": 90}, {"noteNumber": 69, "beat": 33, "duration": 0.5, "velocity": 90}, {"noteNumber": 60, "beat": 33.5, "duration": 0.5, "velocity": 90}, {"noteNumber": 65, "beat": 33.5, "duration": 0.5, "velocity": 90}, {"noteNumber": 69, "beat": 33.5, "duration": 0.5, "velocity": 90}, {"noteNumber": 60, "beat": 34, "duration": 0.5, "velocity": 90}, {"noteNumber": 65, "beat": 34, "duration": 0.5, "velocity": 90}, {"noteNumber": 69, "beat": 34, "duration": 0.5, "velocity": 90}, {"noteNumber": 60, "beat": 34.5, "duration": 0.5, "velocity": 90}, {"noteNumber": 65, "beat": 34.5, "duration": 0.5, "velocity": 90}, {"noteNumber": 69, "beat": 34.5, "duration": 0.5, "velocity": 90}, {"noteNumber": 60, "beat": 35, "duration": 0.5, "velocity": 90}, {"noteNumber": 65, "beat": 35, "duration": 0.5, "velocity": 90}, {"noteNumber": 69, "beat": 35, "duration": 0.5, "velocity": 90}, {"noteNumber": 60, "beat": 35.5, "duration": 0.5, "velocity": 90}, {"noteNumber": 65, "beat": 35.5, "duration": 0.5, "velocity": 90}, {"noteNumber": 69, "beat": 35.5, "duration": 0.5, "velocity": 90}, {"noteNumber": 60, "beat": 36, "duration": 0.5, "velocity": 90}, {"noteNumber": 65, "beat": 36, "duration": 0.5, "velocity": 90}, {"noteNumber": 69, "beat": 36, "duration": 0.5, "velocity": 90}, {"noteNumber": 60, "beat": 36.5, "duration": 0.5, "velocity": 90}, {"noteNumber": 65, "beat": 36.5, "duration": 0.5, "velocity": 90}, {"noteNumber": 69, "beat": 36.5, "duration": 0.5, "velocity": 90}, {"noteNumber": 60, "beat": 37, "duration": 0.5, "velocity": 90}, {"noteNumber": 65, "beat": 37, "duration": 0.5, "velocity": 90}, {"noteNumber": 69, "beat": 37, "duration": 0.5, "velocity": 90}, {"noteNumber": 60, "beat": 37.5, "duration": 0.5, "velocity": 90}, {"noteNumber": 65, "beat": 37.5, "duration": 0.5, "velocity": 90}, {"noteNumber": 69, "beat": 37.5, "duration": 0.5, "velocity": 90}, {"noteNumber": 60, "beat": 38, "duration": 0.5, "velocity": 90}, {"noteNumber": 65, "beat": 38, "duration": 0.5, "velocity": 90}, {"noteNumber": 69, "beat": 38, "duration": 0.5, "velocity": 90}, {"noteNumber": 60, "beat": 38.5, "duration": 0.5, "velocity": 90}, {"noteNumber": 65, "beat": 38.5, "duration": 0.5, "velocity": 90}, {"noteNumber": 69, "beat": 38.5, "duration": 0.5, "velocity": 90}, {"noteNumber": 60, "beat": 39, "duration": 0.5, "velocity": 90}, {"noteNumber": 65, "beat": 39, "duration": 0.5, "velocity": 90}, {"noteNumber": 69, "beat": 39, "duration": 0.5, "velocity": 90}, {"noteNumber": 60, "beat": 39.5, "duration": 0.5, "velocity": 90}, {"noteNumber": 65, "beat": 39.5, "duration": 0.5, "velocity": 90}, {"noteNumber": 69, "beat": 39.5, "duration": 0.5, "velocity": 90}, {"noteNumber": 60, "beat": 40, "duration": 0.5, "velocity": 90}, {"noteNumber": 65, "beat": 40, "duration": 0.5, "velocity": 90}, {"noteNumber": 70, "beat": 40, "duration": 0.5, "velocity": 90}, {"noteNumber": 60, "beat": 40.5, "duration": 0.5, "velocity": 90}, {"noteNumber": 65, "beat": 40.5, "duration": 0.5, "velocity": 90}, {"noteNumber": 70, "beat": 40.5, "duration": 0.5, "velocity": 90}, {"noteNumber": 60, "beat": 41, "duration": 0.5, "velocity": 90}, {"noteNumber": 65, "beat": 41, "duration": 0.5, "velocity": 90}, {"noteNumber": 70, "beat": 41, "duration": 0.5, "velocity": 90}, {"noteNumber": 60, "beat": 41.5, "duration": 0.5, "velocity": 90}, {"noteNumber": 65, "beat": 41.5, "duration": 0.5, "velocity": 90}, {"noteNumber": 70, "beat": 41.5, "duration": 0.5, "velocity": 90}, {"noteNumber": 60, "beat": 42, "duration": 0.5, "velocity": 90}, {"noteNumber": 65, "beat": 42, "duration": 0.5, "velocity": 90}, {"noteNumber": 70, "beat": 42, "duration": 0.5, "velocity": 90}, {"noteNumber": 60, "beat": 42.5, "duration": 0.5, "velocity": 90}, {"noteNumber": 65, "beat": 42.5, "duration": 0.5, "velocity": 90}, {"noteNumber": 70, "beat": 42.5, "duration": 0.5, "velocity": 90}, {"noteNumber": 60, "beat": 43, "duration": 0.5, "velocity": 90}, {"noteNumber": 65, "beat": 43, "duration": 0.5, "velocity": 90}, {"noteNumber": 70, "beat": 43, "duration": 0.5, "velocity": 90}, {"noteNumber": 60, "beat": 43.5, "duration": 0.5, "velocity": 90}, {"noteNumber": 65, "beat": 43.5, "duration": 0.5, "velocity": 90}, {"noteNumber": 70, "beat": 43.5, "duration": 0.5, "velocity": 90}, {"noteNumber": 60, "beat": 44, "duration": 0.5, "velocity": 90}, {"noteNumber": 65, "beat": 44, "duration": 0.5, "velocity": 90}, {"noteNumber": 69, "beat": 44, "duration": 0.5, "velocity": 90}, {"noteNumber": 60, "beat": 44.5, "duration": 0.5, "velocity": 90}, {"noteNumber": 65, "beat": 44.5, "duration": 0.5, "velocity": 90}, {"noteNumber": 69, "beat": 44.5, "duration": 0.5, "velocity": 90}, {"noteNumber": 60, "beat": 45, "duration": 0.5, "velocity": 90}, {"noteNumber": 65, "beat": 45, "duration": 0.5, "velocity": 90}, {"noteNumber": 69, "beat": 45, "duration": 0.5, "velocity": 90}, {"noteNumber": 60, "beat": 45.5, "duration": 0.5, "velocity": 90}, {"noteNumber": 65, "beat": 45.5, "duration": 0.5, "velocity": 90}, {"noteNumber": 69, "beat": 45.5, "duration": 0.5, "velocity": 90}, {"noteNumber": 60, "beat": 46, "duration": 0.5, "velocity": 90}, {"noteNumber": 65, "beat": 46, "duration": 0.5, "velocity": 90}, {"noteNumber": 69, "beat": 46, "duration": 0.5, "velocity": 90}, {"noteNumber": 60, "beat": 46.5, "duration": 0.5, "velocity": 90}, {"noteNumber": 65, "beat": 46.5, "duration": 0.5, "velocity": 90}, {"noteNumber": 69, "beat": 46.5, "duration": 0.5, "velocity": 90}, {"noteNumber": 60, "beat": 47, "duration": 0.5, "velocity": 90}, {"noteNumber": 65, "beat": 47, "duration": 0.5, "velocity": 90}, {"noteNumber": 69, "beat": 47, "duration": 0.5, "velocity": 90}, {"noteNumber": 60, "beat": 47.5, "duration": 0.5, "velocity": 90}, {"noteNumber": 65, "beat": 47.5, "duration": 0.5, "velocity": 90}, {"noteNumber": 69, "beat": 47.5, "duration": 0.5, "velocity": 90}, {"noteNumber": 58, "beat": 48, "duration": 0.5, "velocity": 90}, {"noteNumber": 65, "beat": 48, "duration": 0.5, "velocity": 90}, {"noteNumber": 69, "beat": 48, "duration": 0.5, "velocity": 90}, {"noteNumber": 58, "beat": 48.5, "duration": 0.5, "velocity": 90}, {"noteNumber": 65, "beat": 48.5, "duration": 0.5, "velocity": 90}, {"noteNumber": 69, "beat": 48.5, "duration": 0.5, "velocity": 90}, {"noteNumber": 58, "beat": 49, "duration": 0.5, "velocity": 90}, {"noteNumber": 65, "beat": 49, "duration": 0.5, "velocity": 90}, {"noteNumber": 69, "beat": 49, "duration": 0.5, "velocity": 90}, {"noteNumber": 58, "beat": 49.5, "duration": 0.5, "velocity": 90}, {"noteNumber": 65, "beat": 49.5, "duration": 0.5, "velocity": 90}, {"noteNumber": 69, "beat": 49.5, "duration": 0.5, "velocity": 90}, {"noteNumber": 58, "beat": 50, "duration": 0.5, "velocity": 90}, {"noteNumber": 65, "beat": 50, "duration": 0.5, "velocity": 90}, {"noteNumber": 69, "beat": 50, "duration": 0.5, "velocity": 90}, {"noteNumber": 58, "beat": 50.5, "duration": 0.5, "velocity": 90}, {"noteNumber": 65, "beat": 50.5, "duration": 0.5, "velocity": 90}, {"noteNumber": 69, "beat": 50.5, "duration": 0.5, "velocity": 90}, {"noteNumber": 58, "beat": 51, "duration": 0.5, "velocity": 90}, {"noteNumber": 65, "beat": 51, "duration": 0.5, "velocity": 90}, {"noteNumber": 69, "beat": 51, "duration": 0.5, "velocity": 90}, {"noteNumber": 58, "beat": 51.5, "duration": 0.5, "velocity": 90}, {"noteNumber": 65, "beat": 51.5, "duration": 0.5, "velocity": 90}, {"noteNumber": 69, "beat": 51.5, "duration": 0.5, "velocity": 90}, {"noteNumber": 69, "beat": 52, "duration": 0.5, "velocity": 90}, {"noteNumber": 60, "beat": 52, "duration": 0.5, "velocity": 90}, {"noteNumber": 65, "beat": 52, "duration": 0.5, "velocity": 90}, {"noteNumber": 69, "beat": 52.5, "duration": 0.5, "velocity": 90}, {"noteNumber": 60, "beat": 52.5, "duration": 0.5, "velocity": 90}, {"noteNumber": 65, "beat": 52.5, "duration": 0.5, "velocity": 90}, {"noteNumber": 69, "beat": 53, "duration": 0.5, "velocity": 90}, {"noteNumber": 60, "beat": 53, "duration": 0.5, "velocity": 90}, {"noteNumber": 65, "beat": 53, "duration": 0.5, "velocity": 90}, {"noteNumber": 69, "beat": 53.5, "duration": 0.5, "velocity": 90}, {"noteNumber": 60, "beat": 53.5, "duration": 0.5, "velocity": 90}, {"noteNumber": 65, "beat": 53.5, "duration": 0.5, "velocity": 90}, {"noteNumber": 69, "beat": 54, "duration": 0.5, "velocity": 90}, {"noteNumber": 60, "beat": 54, "duration": 0.5, "velocity": 90}, {"noteNumber": 65, "beat": 54, "duration": 0.5, "velocity": 90}, {"noteNumber": 69, "beat": 54.5, "duration": 0.5, "velocity": 90}, {"noteNumber": 60, "beat": 54.5, "duration": 0.5, "velocity": 90}, {"noteNumber": 65, "beat": 54.5, "duration": 0.5, "velocity": 90}, {"noteNumber": 69, "beat": 55, "duration": 0.5, "velocity": 90}, {"noteNumber": 60, "beat": 55, "duration": 0.5, "velocity": 90}, {"noteNumber": 65, "beat": 55, "duration": 0.5, "velocity": 90}, {"noteNumber": 69, "beat": 55.5, "duration": 0.5, "velocity": 90}, {"noteNumber": 60, "beat": 55.5, "duration": 0.5, "velocity": 90}, {"noteNumber": 65, "beat": 55.5, "duration": 0.5, "velocity": 90}, {"noteNumber": 65, "beat": 56, "duration": 0.5, "velocity": 90}, {"noteNumber": 70, "beat": 56, "duration": 0.5, "velocity": 90}, {"noteNumber": 62, "beat": 56, "duration": 0.5, "velocity": 90}, {"noteNumber": 65, "beat": 56.5, "duration": 0.5, "velocity": 90}, {"noteNumber": 70, "beat": 56.5, "duration": 0.5, "velocity": 90}, {"noteNumber": 62, "beat": 56.5, "duration": 0.5, "velocity": 90}, {"noteNumber": 65, "beat": 57, "duration": 0.5, "velocity": 90}, {"noteNumber": 70, "beat": 57, "duration": 0.5, "velocity": 90}, {"noteNumber": 62, "beat": 57, "duration": 0.5, "velocity": 90}, {"noteNumber": 65, "beat": 57.5, "duration": 0.5, "velocity": 90}, {"noteNumber": 70, "beat": 57.5, "duration": 0.5, "velocity": 90}, {"noteNumber": 62, "beat": 57.5, "duration": 0.5, "velocity": 90}, {"noteNumber": 65, "beat": 58, "duration": 0.5, "velocity": 90}, {"noteNumber": 70, "beat": 58, "duration": 0.5, "velocity": 90}, {"noteNumber": 62, "beat": 58, "duration": 0.5, "velocity": 90}, {"noteNumber": 65, "beat": 58.5, "duration": 0.5, "velocity": 90}, {"noteNumber": 70, "beat": 58.5, "duration": 0.5, "velocity": 90}, {"noteNumber": 62, "beat": 58.5, "duration": 0.5, "velocity": 90}, {"noteNumber": 65, "beat": 59, "duration": 0.5, "velocity": 90}, {"noteNumber": 70, "beat": 59, "duration": 0.5, "velocity": 90}, {"noteNumber": 62, "beat": 59, "duration": 0.5, "velocity": 90}, {"noteNumber": 65, "beat": 59.5, "duration": 0.5, "velocity": 90}, {"noteNumber": 70, "beat": 59.5, "duration": 0.5, "velocity": 90}, {"noteNumber": 62, "beat": 59.5, "duration": 0.5, "velocity": 90}, {"noteNumber": 72, "beat": 60, "duration": 0.5, "velocity": 90}, {"noteNumber": 67, "beat": 60, "duration": 0.5, "velocity": 90}, {"noteNumber": 62, "beat": 60, "duration": 0.5, "velocity": 90}, {"noteNumber": 72, "beat": 60.5, "duration": 0.5, "velocity": 90}, {"noteNumber": 67, "beat": 60.5, "duration": 0.5, "velocity": 90}, {"noteNumber": 62, "beat": 60.5, "duration": 0.5, "velocity": 90}, {"noteNumber": 72, "beat": 61, "duration": 0.5, "velocity": 90}, {"noteNumber": 67, "beat": 61, "duration": 0.5, "velocity": 90}, {"noteNumber": 62, "beat": 61, "duration": 0.5, "velocity": 90}, {"noteNumber": 72, "beat": 61.5, "duration": 0.5, "velocity": 90}, {"noteNumber": 67, "beat": 61.5, "duration": 0.5, "velocity": 90}, {"noteNumber": 62, "beat": 61.5, "duration": 0.5, "velocity": 90}, {"noteNumber": 72, "beat": 62, "duration": 0.5, "velocity": 90}, {"noteNumber": 67, "beat": 62, "duration": 0.5, "velocity": 90}, {"noteNumber": 62, "beat": 62, "duration": 0.5, "velocity": 90}, {"noteNumber": 72, "beat": 62.5, "duration": 0.5, "velocity": 90}, {"noteNumber": 67, "beat": 62.5, "duration": 0.5, "velocity": 90}, {"noteNumber": 62, "beat": 62.5, "duration": 0.5, "velocity": 90}, {"noteNumber": 72, "beat": 63, "duration": 0.5, "velocity": 90}, {"noteNumber": 67, "beat": 63, "duration": 0.5, "velocity": 90}, {"noteNumber": 62, "beat": 63, "duration": 0.5, "velocity": 90}, {"noteNumber": 72, "beat": 63.5, "duration": 0.5, "velocity": 90}, {"noteNumber": 67, "beat": 63.5, "duration": 0.5, "velocity": 90}, {"noteNumber": 62, "beat": 63.5, "duration": 0.5, "velocity": 90}, {"noteNumber": 67, "beat": 64, "duration": 1.5, "velocity": 90}, {"noteNumber": 70, "beat": 64, "duration": 1.5, "velocity": 90}, {"noteNumber": 65, "beat": 65.5, "duration": 0.75, "velocity": 90}, {"noteNumber": 69, "beat": 65.5, "duration": 0.75, "velocity": 90}, {"noteNumber": 58, "beat": 66.5, "duration": 0.75, "velocity": 90}, {"noteNumber": 67, "beat": 66.5, "duration": 0.75, "velocity": 90}, {"noteNumber": 57, "beat": 67.5, "duration": 3, "velocity": 90}, {"noteNumber": 65, "beat": 67.5, "duration": 3, "velocity": 90}]}, {"instrument": "Piano", "volume": 90, "notes": []}, {"instrument": "Piano", "volume": 90, "notes": []}]}